<svg xmlns="http://www.w3.org/2000/svg" viewBox="0 0 640 640"><filter id="b"><feGaussianBlur stdDeviation="12" /></filter><path d="M0 0h640v640H0z" fill="#638298" /><g filter="url(#b)" transform="scale(2.500000) translate(0.5 0.5)"><g transform="translate(107 0) rotate(44) scale(156 183)"><path d="M0 0h640v640H0z" fill="#358ff6" /></g><ellipse fill="#988f67" fill-opacity=".501961" cx="136" cy="241" rx="218" ry="69" /><ellipse fill="#be8ad9" fill-opacity=".501961" cx="70" cy="107" rx="49" ry="18" /><ellipse fill="#03548e" fill-opacity=".501961" cx="238" cy="29" rx="23" ry="60" /><g transform="translate(250.801282 143.384813) rotate(164.357753) scale(32.118580 63.222040)"><ellipse fill="#736e45" fill-opacity=".501961" cx="0" cy="0" rx="1" ry="1" /></g><g transform="translate(141.558667 157.789609) rotate(43.405601) scale(42.948925 22.704779)"><ellipse fill="#404873" fill-opacity=".501961" cx="0" cy="0" rx="1" ry="1" /></g><g transform="translate(156 38) rotate(358) scale(61 33)"><path d="M0 0h640v640H0z" fill="#2dc5f4" /></g><ellipse fill="#16316d" fill-opacity=".501961" cx="18" cy="57" rx="7" ry="56" /></g></svg>