<svg xmlns="http://www.w3.org/2000/svg" viewBox="0 0 640 640"><filter id="b"><feGaussianBlur stdDeviation="12" /></filter><path d="M0 0h640v640H0z" fill="#738aa6" /><g filter="url(#b)" transform="scale(2.500000) translate(0.5 0.5)"><g transform="translate(119.685336 27.354553) rotate(165.555412) scale(249.472598 60.027326)"><ellipse fill="#238aff" fill-opacity=".501961" cx="0" cy="0" rx="1" ry="1" /></g><g transform="translate(212.197141 172.205421) rotate(57.371989) scale(86.778982 255.000000)"><ellipse fill="#9f8764" fill-opacity=".501961" cx="0" cy="0" rx="1" ry="1" /></g><g transform="translate(49.046766 151.883717) rotate(51.281383) scale(83.241894 64.928452)"><ellipse fill="#9aa3b4" fill-opacity=".501961" cx="0" cy="0" rx="1" ry="1" /></g><ellipse fill="#726b3b" fill-opacity=".501961" cx="37" cy="152" rx="96" ry="11" /><ellipse fill="#0d6cd7" fill-opacity=".501961" cx="255" cy="1" rx="159" ry="41" /><path d="M0 0h640v640H0z" fill="#d58c6c" /><g transform="translate(104.335547 90.712825) rotate(244.954717) scale(44.537113 85.892727)"><ellipse fill="#78a0df" fill-opacity=".501961" cx="0" cy="0" rx="1" ry="1" /></g><g transform="translate(241.161474 218.505611) rotate(135.523791) scale(219.133273 36.930082)"><ellipse fill="#6f6d58" fill-opacity=".501961" cx="0" cy="0" rx="1" ry="1" /></g></g></svg>