<svg xmlns="http://www.w3.org/2000/svg" viewBox="0 0 640 640"><filter id="b"><feGaussianBlur stdDeviation="12" /></filter><path d="M0 0h640v640H0z" fill="#6f7384" /><g filter="url(#b)" transform="scale(2.500000) translate(0.5 0.5)"><g transform="translate(91.768265 222.938988) rotate(2.452774) scale(255.000000 46.281953)"><ellipse fill="#403115" fill-opacity=".501961" cx="0" cy="0" rx="1" ry="1" /></g><g transform="translate(149.295783 49.530001) rotate(175.119533) scale(175.134415 71.666263)"><ellipse fill="#7f9ae0" fill-opacity=".501961" cx="0" cy="0" rx="1" ry="1" /></g><ellipse fill="#0e53c4" fill-opacity=".501961" cx="37" cy="0" rx="222" ry="30" /><g transform="translate(62.599986 127.450294) rotate(259.087431) scale(74.664792 44.317348)"><ellipse fill="#af9369" fill-opacity=".501961" cx="0" cy="0" rx="1" ry="1" /></g><ellipse fill="#9b9276" fill-opacity=".501961" cx="202" cy="120" rx="56" ry="56" /><ellipse fill="#6d6a63" fill-opacity=".501961" cx="142" cy="189" rx="124" ry="31" /><g transform="translate(172.134400 53.158665) rotate(352.603750) scale(101.487915 20.844131)"><ellipse fill="#a6a4d0" fill-opacity=".501961" cx="0" cy="0" rx="1" ry="1" /></g><ellipse fill="#3a2e27" fill-opacity=".501961" cx="62" cy="255" rx="254" ry="26" /></g></svg>