<svg xmlns="http://www.w3.org/2000/svg" viewBox="0 0 910 796"><filter id="b"><feGaussianBlur stdDeviation="12" /></filter><path d="M0 0h910v796H0z" fill="#aba7a2" /><g filter="url(#b)" transform="scale(3.554688) translate(0.5 0.5)"><ellipse fill="#5a5250" fill-opacity=".501961" cx="138" cy="133" rx="59" ry="59" /><path fill="#000" fill-opacity=".501961" d="M84 59l36 14 18-23z" /><ellipse fill="#c2bfba" fill-opacity=".501961" cx="133" cy="169" rx="21" ry="70" /><g transform="translate(231.258130 103.463826) rotate(169.692414) scale(44.316915 187.343287)"><ellipse fill="#d5d6d1" fill-opacity=".501961" cx="0" cy="0" rx="1" ry="1" /></g><g transform="translate(155.177370 95.422422) rotate(120.868135) scale(16.118592 26.450029)"><ellipse fill="#2f1f1d" fill-opacity=".501961" cx="0" cy="0" rx="1" ry="1" /></g><ellipse fill="#160807" fill-opacity=".501961" cx="102" cy="105" rx="16" ry="16" /><g transform="translate(122.761702 93.821150) rotate(58.093761) scale(30.286449 9.315528)"><ellipse fill="#dcddd6" fill-opacity=".501961" cx="0" cy="0" rx="1" ry="1" /></g><g transform="translate(127 48) rotate(109) scale(43 10)"><path d="M0 0h910v796H0z" fill="#1a0301" /></g></g></svg>