<svg xmlns="http://www.w3.org/2000/svg" viewBox="0 0 640 640"><filter id="b"><feGaussianBlur stdDeviation="12" /></filter><path d="M0 0h640v640H0z" fill="#648199" /><g filter="url(#b)" transform="scale(2.500000) translate(0.5 0.5)"><g transform="translate(107.027980 0.000000) rotate(219.805277) scale(87.563217 97.531586)"><ellipse fill="#308ef7" fill-opacity=".501961" cx="0" cy="0" rx="1" ry="1" /></g><ellipse fill="#8a876d" fill-opacity=".501961" cx="166" cy="255" rx="136" ry="136" /><g transform="translate(240.986549 35.935269) rotate(188.624034) scale(26.411964 57.144118)"><ellipse fill="#0a5791" fill-opacity=".501961" cx="0" cy="0" rx="1" ry="1" /></g><g transform="translate(66.022922 103.586508) rotate(95.974111) scale(19.062119 49.786805)"><ellipse fill="#af87e6" fill-opacity=".501961" cx="0" cy="0" rx="1" ry="1" /></g><g transform="translate(145.598000 142.743825) rotate(-18.458619) scale(23.690355 53.840404)"><ellipse fill="#255a97" fill-opacity=".501961" cx="0" cy="0" rx="1" ry="1" /></g><ellipse fill="#777142" fill-opacity=".501961" cx="241" cy="122" rx="26" ry="41" /><g transform="translate(12.718024 200.240905) rotate(86.816402) scale(72.409006 23.104622)"><ellipse fill="#767362" fill-opacity=".501961" cx="0" cy="0" rx="1" ry="1" /></g><path d="M0 0h640v640H0z" fill="#254879" /></g></svg>