<svg xmlns="http://www.w3.org/2000/svg" viewBox="0 0 640 640"><filter id="b"><feGaussianBlur stdDeviation="12" /></filter><path d="M0 0h640v640H0z" fill="#6f7385" /><g filter="url(#b)" transform="scale(2.500000) translate(0.5 0.5)"><ellipse fill="#413115" fill-opacity=".501961" cx="93" cy="221" rx="255" ry="44" /><g transform="translate(150.929030 40.897129) rotate(263.293956) scale(80.267913 179.173207)"><ellipse fill="#7f98e1" fill-opacity=".501961" cx="0" cy="0" rx="1" ry="1" /></g><path fill="#bb9a71" fill-opacity=".501961" d="M107 48 1 78 92 229z" /><g transform="translate(114.146433 0.000000) rotate(353.116614) scale(247.661385 28.406141)"><ellipse fill="#1050c2" fill-opacity=".501961" cx="0" cy="0" rx="1" ry="1" /></g><g transform="translate(182.619478 103.540738) rotate(103.758338) scale(60.149901 40.856339)"><ellipse fill="#a8a393" fill-opacity=".501961" cx="0" cy="0" rx="1" ry="1" /></g><ellipse fill="#797168" fill-opacity=".501961" cx="154" cy="171" rx="166" ry="42" /><g transform="translate(69.245673 255.000000) rotate(180.925396) scale(255.000000 26.585019)"><ellipse fill="#3a2e28" fill-opacity=".501961" cx="0" cy="0" rx="1" ry="1" /></g><g transform="translate(138.670312 51.314832) rotate(-14.419695) scale(46.513185 29.925843)"><ellipse fill="#9099e9" fill-opacity=".501961" cx="0" cy="0" rx="1" ry="1" /></g></g></svg>