<svg xmlns="http://www.w3.org/2000/svg" viewBox="0 0 640 640"><filter id="b"><feGaussianBlur stdDeviation="12" /></filter><path d="M0 0h640v640H0z" fill="#62839f" /><g filter="url(#b)" transform="scale(2.500000) translate(0.5 0.5)"><ellipse fill="#3d4d95" fill-opacity=".501961" cx="250" cy="24" rx="70" ry="70" /><g transform="translate(96.105423 130.121872) rotate(361.042738) scale(129.751733 57.256394)"><ellipse fill="#79979e" fill-opacity=".501961" cx="0" cy="0" rx="1" ry="1" /></g><path fill="#769cff" fill-opacity=".501961" d="M57.714244 107.906008 53.527589 177.499035 24.852706 125.82369 121.682464 97.911134z" /><ellipse fill="#739a61" fill-opacity=".501961" cx="113" cy="132" rx="61" ry="26" /><path fill="#7299ff" fill-opacity=".501961" d="M206 125l-27 3-36-28z" /><path fill="#6d74ff" fill-opacity=".501961" d="M-13 118l-3 24L50 95z" /><g transform="translate(89.165331 167.885840) rotate(97.495956) scale(12.710971 71.519158)"><ellipse fill="#6b8ccf" fill-opacity=".501961" cx="0" cy="0" rx="1" ry="1" /></g><g transform="translate(222.544318 164.647267) rotate(300.133083) scale(14.137958 98.197747)"><ellipse fill="#708471" fill-opacity=".501961" cx="0" cy="0" rx="1" ry="1" /></g></g></svg>