<svg xmlns="http://www.w3.org/2000/svg" viewBox="0 0 640 640"><filter id="b"><feGaussianBlur stdDeviation="12" /></filter><path d="M0 0h640v640H0z" fill="#67879d" /><g filter="url(#b)" transform="scale(2.500000) translate(0.5 0.5)"><g transform="translate(140.675217 0.000000) rotate(5.969647) scale(167.547350 32.859637)"><ellipse fill="#341ca8" fill-opacity=".501961" cx="0" cy="0" rx="1" ry="1" /></g><ellipse fill="#26f4a1" fill-opacity=".501961" cx="67" cy="43" rx="89" ry="22" /><g transform="translate(191.211434 53.398501) rotate(302.321374) scale(16.353179 54.370062)"><ellipse fill="#3c25a3" fill-opacity=".501961" cx="0" cy="0" rx="1" ry="1" /></g><g transform="translate(93.047175 16.649336) rotate(270.902138) scale(6.597485 147.495365)"><ellipse fill="#c8424e" fill-opacity=".501961" cx="0" cy="0" rx="1" ry="1" /></g><ellipse fill="#8b9ea1" fill-opacity=".501961" cx="127" cy="192" rx="243" ry="77" /><g transform="translate(157 2) rotate(271) scale(12 198)"><path d="M0 0h640v640H0z" fill="#0042ff" /></g><g transform="translate(246.506030 49.874958) rotate(255.736974) scale(15.770880 25.320227)"><ellipse fill="#43f4ad" fill-opacity=".501961" cx="0" cy="0" rx="1" ry="1" /></g><g transform="translate(75.977631 76.572034) rotate(84.675112) scale(7.593991 68.461823)"><ellipse fill="#421e86" fill-opacity=".501961" cx="0" cy="0" rx="1" ry="1" /></g></g></svg>