<svg xmlns="http://www.w3.org/2000/svg" viewBox="0 0 640 640"><filter id="b"><feGaussianBlur stdDeviation="12" /></filter><path d="M0 0h640v640H0z" fill="#5b6f9b" /><g filter="url(#b)" transform="scale(2.500000) translate(0.5 0.5)"><g transform="translate(105.644967 4.629200) rotate(177.143902) scale(255.000000 24.810345)"><ellipse fill="#da1f95" fill-opacity=".501961" cx="0" cy="0" rx="1" ry="1" /></g><ellipse fill="#bf8d87" fill-opacity=".501961" cx="179" cy="183" rx="85" ry="28" /><g transform="translate(73.260922 202.352461) rotate(204.766615) scale(82.064707 25.192735)"><ellipse fill="#0291ac" fill-opacity=".501961" cx="0" cy="0" rx="1" ry="1" /></g><ellipse fill="#5430ff" fill-opacity=".501961" cx="96" cy="29" rx="140" ry="11" /><ellipse fill="#0023bc" fill-opacity=".501961" cx="228" cy="69" rx="61" ry="13" /><g transform="translate(197.634461 229.866843) rotate(267.701001) scale(19.766847 79.037811)"><ellipse fill="#067ea8" fill-opacity=".501961" cx="0" cy="0" rx="1" ry="1" /></g><path d="M0 0h640v640H0z" fill="#4d959d" /><g transform="translate(144.963777 47.014136) rotate(86.295889) scale(11.792197 206.128572)"><ellipse fill="#493470" fill-opacity=".501961" cx="0" cy="0" rx="1" ry="1" /></g></g></svg>