<svg xmlns="http://www.w3.org/2000/svg" viewBox="0 0 640 640"><filter id="b"><feGaussianBlur stdDeviation="12" /></filter><path d="M0 0h640v640H0z" fill="#55679a" /><g filter="url(#b)" transform="scale(2.500000) translate(0.5 0.5)"><path fill="#c92740" fill-opacity=".501961" d="M-16 171 84-16-10 1z" /><ellipse fill="#2b35ff" fill-opacity=".501961" cx="227" cy="32" rx="185" ry="16" /><g transform="translate(49.185144 95.735148) rotate(298.783468) scale(66.467075 19.166652)"><ellipse fill="#3431ff" fill-opacity=".501961" cx="0" cy="0" rx="1" ry="1" /></g><g transform="translate(14.481027 198.899303) rotate(66.630730) scale(150.021486 23.184216)"><ellipse fill="#382d4e" fill-opacity=".501961" cx="0" cy="0" rx="1" ry="1" /></g><g transform="translate(239.247906 7.363452) rotate(279.193190) scale(15.939887 53.063135)"><ellipse fill="#d22c3b" fill-opacity=".501961" cx="0" cy="0" rx="1" ry="1" /></g><g transform="translate(74.790626 25.719581) rotate(156.069320) scale(55.198465 11.283420)"><ellipse fill="#1c383d" fill-opacity=".501961" cx="0" cy="0" rx="1" ry="1" /></g><g transform="translate(56.834308 188.673808) rotate(76.835143) scale(47.288411 21.744635)"><ellipse fill="#49b6d4" fill-opacity=".501961" cx="0" cy="0" rx="1" ry="1" /></g><g transform="translate(104.740617 247.607379) rotate(109.192272) scale(10.245326 31.518688)"><ellipse fill="#00ea4b" fill-opacity=".501961" cx="0" cy="0" rx="1" ry="1" /></g></g></svg>