<svg xmlns="http://www.w3.org/2000/svg" viewBox="0 0 1280 896"><filter id="b"><feGaussianBlur stdDeviation="12" /></filter><path d="M0 0h1280v896H0z" fill="#5a6664" /><g filter="url(#b)" transform="scale(5.000000) translate(0.5 0.5)"><g transform="translate(115.204037 87.272032) rotate(449.261714) scale(148.626102 62.759988)"><ellipse fill="#98aecd" fill-opacity=".501961" cx="0" cy="0" rx="1" ry="1" /></g><g transform="translate(219.447516 49.991617) rotate(30.909003) scale(45.190201 55.913358)"><ellipse fill="#000" fill-opacity=".501961" cx="0" cy="0" rx="1" ry="1" /></g><g transform="translate(12.350776 101.337134) rotate(-0.971057) scale(33.952962 82.226495)"><ellipse fill="#000" fill-opacity=".501961" cx="0" cy="0" rx="1" ry="1" /></g><ellipse fill="#3d88ea" fill-opacity=".501961" cx="81" cy="32" rx="37" ry="37" /><g transform="translate(19.293315 69.018072) rotate(63.965683) scale(27.850914 37.133586)"><ellipse fill="#000" fill-opacity=".501961" cx="0" cy="0" rx="1" ry="1" /></g><g transform="translate(93.830050 95.379071) rotate(279.080664) scale(17.562886 31.618105)"><ellipse fill="#e5d9c4" fill-opacity=".501961" cx="0" cy="0" rx="1" ry="1" /></g><path fill="#dcd2c4" fill-opacity=".501961" d="M153 106l-1-34 71 44z" /><ellipse fill="#438be8" fill-opacity=".501961" cx="152" cy="22" rx="25" ry="47" /></g></svg>