<svg xmlns="http://www.w3.org/2000/svg" viewBox="0 0 1536 1024"><filter id="b"><feGaussianBlur stdDeviation="12" /></filter><path d="M0 0h1536v1024H0z" fill="#a2918d" /><g filter="url(#b)" transform="scale(6.000000) translate(0.5 0.5)"><g transform="translate(227.738489 43.153104) rotate(48.049519) scale(44.857262 62.861833)"><ellipse fill="#fff" fill-opacity=".501961" cx="0" cy="0" rx="1" ry="1" /></g><ellipse fill="#554637" fill-opacity=".501961" cx="114" cy="102" rx="72" ry="72" /><g transform="translate(6.241684 85.814199) rotate(1.215922) scale(48.404628 65.898207)"><ellipse fill="#fff" fill-opacity=".501961" cx="0" cy="0" rx="1" ry="1" /></g><ellipse fill="#a56507" fill-opacity=".501961" cx="111" cy="30" rx="68" ry="37" /><g transform="translate(130.695832 169.000000) rotate(180.721232) scale(90.340975 29.535963)"><ellipse fill="#674a33" fill-opacity=".501961" cx="0" cy="0" rx="1" ry="1" /></g><path fill="#9e9cb7" fill-opacity=".501961" d="M189 121-2 149 34 98z" /><ellipse fill="#fff" fill-opacity=".501961" cx="2" cy="72" rx="41" ry="41" /><g transform="translate(229.543370 56.404352) rotate(69.947338) scale(32.748487 57.573768)"><ellipse fill="#efe2ff" fill-opacity=".501961" cx="0" cy="0" rx="1" ry="1" /></g></g></svg>