<svg xmlns="http://www.w3.org/2000/svg" viewBox="0 0 1292 1028"><filter id="b"><feGaussianBlur stdDeviation="12" /></filter><path d="M0 0h1292v1028H0z" fill="#7c7c7c" /><g filter="url(#b)" transform="scale(5.046875) translate(0.5 0.5)"><g transform="translate(70.303239 202.000000) rotate(185.585205) scale(112.976955 31.696497)"><ellipse fill="#fff" fill-opacity=".501961" cx="0" cy="0" rx="1" ry="1" /></g><ellipse fill="#b3bfc0" fill-opacity=".501961" cx="31" cy="102" rx="39" ry="53" /><path fill="#413d37" fill-opacity=".501961" d="M110 129 252-4V179z" /><g transform="translate(113.867166 83.728102) rotate(241.459665) scale(115.556182 34.575235)"><ellipse fill="#484c52" fill-opacity=".501961" cx="0" cy="0" rx="1" ry="1" /></g><g transform="translate(56.913222 202.000000) rotate(272.000498) scale(18.611994 68.508787)"><ellipse fill="#fff" fill-opacity=".501961" cx="0" cy="0" rx="1" ry="1" /></g><g transform="translate(215 202) rotate(81) scale(34 98)"><path d="M0 0h1292v1028H0z" fill="#c8c4c2" /></g><ellipse fill="#fff" fill-opacity=".501961" cx="255" cy="72" rx="3" ry="139" /><path fill="#7d3433" fill-opacity=".501961" d="M196 116 239-16 2e2-2z" /></g></svg>