<svg xmlns="http://www.w3.org/2000/svg" viewBox="0 0 640 640"><filter id="b"><feGaussianBlur stdDeviation="12" /></filter><path d="M0 0h640v640H0z" fill="#ac3828" /><g filter="url(#b)" transform="scale(2.500000) translate(0.5 0.5)"><g transform="translate(117.133439 8.177592) rotate(274.256328) scale(48.308144 141.165514)"><ellipse fill="#ffbd9d" fill-opacity=".501961" cx="0" cy="0" rx="1" ry="1" /></g><g transform="translate(219.738901 196.976981) rotate(168.671770) scale(173.375590 74.249314)"><ellipse fill="#5c0000" fill-opacity=".501961" cx="0" cy="0" rx="1" ry="1" /></g><path fill="#f07c37" fill-opacity=".501961" d="M190 215l-58-23 1-61z" /><ellipse fill="#ff8166" fill-opacity=".501961" cx="143" cy="35" rx="88" ry="38" /><g transform="translate(221.092859 176.865252) rotate(147.381732) scale(34.626674 99.356404)"><ellipse fill="#640000" fill-opacity=".501961" cx="0" cy="0" rx="1" ry="1" /></g><g transform="translate(57.293458 217.531805) rotate(364.882186) scale(153.957369 14.929151)"><ellipse fill="#680000" fill-opacity=".501961" cx="0" cy="0" rx="1" ry="1" /></g><g transform="translate(100.236359 182.626186) rotate(62.711778) scale(28.503997 13.492033)"><ellipse fill="#ff6923" fill-opacity=".501961" cx="0" cy="0" rx="1" ry="1" /></g><path d="M0 0h640v640H0z" fill="#ff5c01" /></g></svg>