<svg xmlns="http://www.w3.org/2000/svg" viewBox="0 0 1032 1030"><filter id="b"><feGaussianBlur stdDeviation="12" /></filter><path d="M0 0h1032v1030H0z" fill="#818181" /><g filter="url(#b)" transform="scale(4.031250) translate(0.5 0.5)"><g transform="translate(67.535751 31.209644) rotate(183.645017) scale(7.934941 41.588434)"><ellipse fill="#fff" fill-opacity=".501961" cx="0" cy="0" rx="1" ry="1" /></g><g transform="translate(66 51) rotate(277) scale(24 17)"><path d="M0 0h1032v1030H0z" fill="#fff" /></g><path fill="#555" fill-opacity=".501961" d="M70.917367 8.847976 69.244313 32.190366 54.731194 42.304717 58.751811 10.268012z" /><g transform="translate(0 127) rotate(270) scale(255 2)"><path d="M0 0h1032v1030H0z" fill="#fff" /></g><ellipse fill="#fff" fill-opacity=".501961" cx="255" cy="129" rx="1" ry="139" /><ellipse fill="#fff" fill-opacity=".501961" cx="88" cy="0" rx="194" ry="1" /><path fill="#dedede" fill-opacity=".501961" d="M86.238436 172.917801 98.598356 170.690692 90.999794 183.514951 80.503813 182.942377z" /><path d="M0 0h1032v1030H0z" fill="#fff" /></g></svg>