<svg xmlns="http://www.w3.org/2000/svg" viewBox="0 0 1536 1024"><filter id="b"><feGaussianBlur stdDeviation="12" /></filter><path d="M0 0h1536v1024H0z" fill="#a2918d" /><g filter="url(#b)" transform="scale(6.000000) translate(0.5 0.5)"><g transform="translate(224.551540 44.734856) rotate(315.394821) scale(57.213631 46.531041)"><ellipse fill="#fff" fill-opacity=".501961" cx="0" cy="0" rx="1" ry="1" /></g><ellipse fill="#644925" fill-opacity=".501961" cx="115" cy="113" rx="64" ry="169" /><g transform="translate(9.231191 85.760203) rotate(89.543648) scale(66.259534 36.568215)"><ellipse fill="#fff" fill-opacity=".501961" cx="0" cy="0" rx="1" ry="1" /></g><g transform="translate(22.593608 73.268480) rotate(38.034445) scale(23.223496 39.533815)"><ellipse fill="#fff" fill-opacity=".501961" cx="0" cy="0" rx="1" ry="1" /></g><g transform="translate(66.903943 121.165299) rotate(358.762218) scale(81.246634 12.632040)"><ellipse fill="#aaafd4" fill-opacity=".501961" cx="0" cy="0" rx="1" ry="1" /></g><ellipse fill="#bc781b" fill-opacity=".501961" cx="82" cy="31" rx="39" ry="33" /><g transform="translate(218.274953 51.771628) rotate(330.764433) scale(51.257911 35.324723)"><ellipse fill="#e9daff" fill-opacity=".501961" cx="0" cy="0" rx="1" ry="1" /></g><g transform="translate(96 90) rotate(182) scale(50 29)"><path d="M0 0h1536v1024H0z" fill="#0e223a" /></g></g></svg>