<svg xmlns="http://www.w3.org/2000/svg" viewBox="0 0 640 640"><filter id="b"><feGaussianBlur stdDeviation="12" /></filter><path d="M0 0h640v640H0z" fill="#ac3828" /><g filter="url(#b)" transform="scale(2.500000) translate(0.5 0.5)"><g transform="translate(127.715288 11.567408) rotate(91.214312) scale(43.146099 143.342915)"><ellipse fill="#ffbd9e" fill-opacity=".501961" cx="0" cy="0" rx="1" ry="1" /></g><g transform="translate(226.069981 198.713265) rotate(351.127180) scale(173.582723 77.640742)"><ellipse fill="#5c0000" fill-opacity=".501961" cx="0" cy="0" rx="1" ry="1" /></g><ellipse fill="#ff876b" fill-opacity=".501961" cx="170" cy="38" rx="58" ry="32" /><ellipse fill="#d35523" fill-opacity=".501961" cx="121" cy="170" rx="39" ry="39" /><ellipse fill="#6b0000" fill-opacity=".501961" cx="71" cy="214" rx="100" ry="18" /><g transform="translate(218.027876 171.399020) rotate(145.857905) scale(31.629838 93.927173)"><ellipse fill="#630000" fill-opacity=".501961" cx="0" cy="0" rx="1" ry="1" /></g><g transform="translate(111.938527 4.994927) rotate(369.994652) scale(122.540314 42.561652)"><ellipse fill="#ff836b" fill-opacity=".501961" cx="0" cy="0" rx="1" ry="1" /></g><ellipse fill="#871621" fill-opacity=".501961" cx="39" cy="42" rx="21" ry="20" /></g></svg>