<svg xmlns="http://www.w3.org/2000/svg" viewBox="0 0 640 640"><filter id="b"><feGaussianBlur stdDeviation="12" /></filter><path d="M0 0h640v640H0z" fill="#197d80" /><g filter="url(#b)" transform="scale(2.500000) translate(0.5 0.5)"><g transform="translate(151.596563 120.370502) rotate(208.247832) scale(120.964300 65.174054)"><ellipse fill="#0ff" fill-opacity=".501961" cx="0" cy="0" rx="1" ry="1" /></g><path fill="#000" fill-opacity=".501961" d="M263 86 260-16-16 1z" /><g transform="translate(125.172219 239.285909) rotate(283.203869) scale(54.587414 255.000000)"><ellipse fill="#4d0000" fill-opacity=".501961" cx="0" cy="0" rx="1" ry="1" /></g><g transform="translate(154.157352 119.513381) rotate(216.945727) scale(114.923014 60.919182)"><ellipse fill="#0ff" fill-opacity=".501961" cx="0" cy="0" rx="1" ry="1" /></g><g transform="translate(8.888727 103.340341) rotate(186.831806) scale(32.350188 208.686956)"><ellipse fill="#311007" fill-opacity=".501961" cx="0" cy="0" rx="1" ry="1" /></g><path fill="#0ff" fill-opacity=".501961" d="M76 168 253 80 238 193z" /><ellipse fill="#03001d" fill-opacity=".501961" cx="201" cy="55" rx="39" ry="27" /><g transform="translate(84.263535 15.786464) rotate(178.751159) scale(200.456177 22.650219)"><ellipse fill="#060026" fill-opacity=".501961" cx="0" cy="0" rx="1" ry="1" /></g></g></svg>