<svg xmlns="http://www.w3.org/2000/svg" viewBox="0 0 640 640"><filter id="b"><feGaussianBlur stdDeviation="12" /></filter><path d="M0 0h640v640H0z" fill="#1b646b" /><g filter="url(#b)" transform="scale(2.500000) translate(0.5 0.5)"><g transform="translate(89.827601 111.247883) rotate(252.165443) scale(60.679940 94.920339)"><ellipse fill="#0ff" fill-opacity=".501961" cx="0" cy="0" rx="1" ry="1" /></g><ellipse fill="#0ff" fill-opacity=".501961" cx="86" cy="108" rx="77" ry="62" /><g transform="translate(149.234217 25.405537) rotate(365.087453) scale(213.549435 31.491029)"><ellipse fill="#0b0000" fill-opacity=".501961" cx="0" cy="0" rx="1" ry="1" /></g><g transform="translate(152.626699 221.321978) rotate(435.807868) scale(65.191819 255.000000)"><ellipse fill="#490706" fill-opacity=".501961" cx="0" cy="0" rx="1" ry="1" /></g><g transform="translate(227.262783 97.803922) rotate(404.180578) scale(42.629747 60.221144)"><ellipse fill="#22000c" fill-opacity=".501961" cx="0" cy="0" rx="1" ry="1" /></g><g transform="translate(92.482654 113.662836) rotate(152.493118) scale(118.109152 32.606526)"><ellipse fill="#02ffff" fill-opacity=".501961" cx="0" cy="0" rx="1" ry="1" /></g><ellipse fill="#000010" fill-opacity=".501961" cx="134" cy="43" rx="27" ry="24" /><ellipse fill="#00012a" fill-opacity=".501961" cx="7" cy="48" rx="32" ry="72" /></g></svg>