<svg xmlns="http://www.w3.org/2000/svg" viewBox="0 0 640 640"><filter id="b"><feGaussianBlur stdDeviation="12" /></filter><path d="M0 0h640v640H0z" fill="#423023" /><g filter="url(#b)" transform="scale(2.500000) translate(0.5 0.5)"><g transform="translate(149.154430 45.215667) rotate(377.281835) scale(57.473486 29.609453)"><ellipse fill="#c9baa3" fill-opacity=".501961" cx="0" cy="0" rx="1" ry="1" /></g><g transform="translate(101.180247 139.370673) rotate(197.723317) scale(109.740051 65.918149)"><ellipse fill="#000" fill-opacity=".501961" cx="0" cy="0" rx="1" ry="1" /></g><g transform="translate(7.046941 22.622669) rotate(377.192672) scale(36.532798 15.399274)"><ellipse fill="#d3e0c8" fill-opacity=".501961" cx="0" cy="0" rx="1" ry="1" /></g><path fill="#c0500c" fill-opacity=".501961" d="M239 240l-84 15-45-95z" /><ellipse fill="#b56d38" fill-opacity=".501961" cx="248" cy="128" rx="41" ry="41" /><g transform="translate(8.676638 192.619703) rotate(222.739971) scale(21.251609 26.701625)"><ellipse fill="#f35f05" fill-opacity=".501961" cx="0" cy="0" rx="1" ry="1" /></g><g transform="translate(193.613028 97.693553) rotate(277.014221) scale(2.834887 17.493526)"><ellipse fill="ivory" fill-opacity=".501961" cx="0" cy="0" rx="1" ry="1" /></g><ellipse fill="#090000" fill-opacity=".501961" cx="102" cy="221" rx="58" ry="18" /></g></svg>