<svg xmlns="http://www.w3.org/2000/svg" viewBox="0 0 640 640"><filter id="b"><feGaussianBlur stdDeviation="12" /></filter><path d="M0 0h640v640H0z" fill="#3c3228" /><g filter="url(#b)" transform="scale(2.500000) translate(0.5 0.5)"><g transform="translate(94.408845 43.856985) rotate(63.230728) scale(40.891879 13.845607)"><ellipse fill="#38ffff" fill-opacity=".501961" cx="0" cy="0" rx="1" ry="1" /></g><g transform="translate(39.974652 223.507026) rotate(180.365319) scale(49.803872 27.374534)"><ellipse fill="#de590b" fill-opacity=".501961" cx="0" cy="0" rx="1" ry="1" /></g><g transform="translate(182 39) rotate(274) scale(41 130)"><path d="M0 0h640v640H0z" fill="#9f9078" /></g><g transform="translate(24.395443 84.849352) rotate(-42.969942) scale(64.948385 142.539579)"><ellipse fill="#0b0c0f" fill-opacity=".501961" cx="0" cy="0" rx="1" ry="1" /></g><g transform="translate(161.800095 106.383052) rotate(145.055857) scale(28.550648 66.684442)"><ellipse fill="#000009" fill-opacity=".501961" cx="0" cy="0" rx="1" ry="1" /></g><path fill="#4bffff" fill-opacity=".501961" d="M95 42l1 40 26-29z" /><path d="M0 0h640v640H0z" fill="#8c3e0b" /><path fill="#fffff9" fill-opacity=".501961" d="M43 24l18-9L55 5z" /></g></svg>