<svg xmlns="http://www.w3.org/2000/svg" viewBox="0 0 2560 1920"><filter id="b"><feGaussianBlur stdDeviation="12" /></filter><path d="M0 0h2560v1920H0z" fill="#52706b" /><g filter="url(#b)" transform="scale(10.000000) translate(0.5 0.5)"><ellipse fill="#0ff" fill-opacity=".501961" cx="226" cy="95" rx="40" ry="35" /><g transform="translate(94 140) rotate(358) scale(67 24)"><path d="M0 0h2560v1920H0z" fill="#fff" /></g><ellipse fill="#740e1b" fill-opacity=".501961" cx="97" cy="61" rx="99" ry="23" /><g transform="translate(28.985433 0.000000) rotate(340.341215) scale(38.399960 28.392070)"><ellipse fill="#fff0f9" fill-opacity=".501961" cx="0" cy="0" rx="1" ry="1" /></g><path fill="#0ff" fill-opacity=".501961" d="M192 59l1 75 78-47z" /><g transform="translate(170 159) rotate(77) scale(21 45)"><path d="M0 0h2560v1920H0z" fill="#0ff" /></g><ellipse fill="#ccaeab" fill-opacity=".501961" cx="236" cy="25" rx="39" ry="39" /><path fill="#000016" fill-opacity=".501961" d="M107 120l99 38 65-29z" /></g></svg>