<svg xmlns="http://www.w3.org/2000/svg" viewBox="0 0 640 640"><filter id="b"><feGaussianBlur stdDeviation="12" /></filter><path d="M0 0h640v640H0z" fill="#197d80" /><g filter="url(#b)" transform="scale(2.500000) translate(0.5 0.5)"><g transform="translate(148.630269 119.874301) rotate(-60.025421) scale(64.246442 118.606036)"><ellipse fill="#0ff" fill-opacity=".501961" cx="0" cy="0" rx="1" ry="1" /></g><g transform="translate(153.603496 12.501810) rotate(284.890813) scale(40.791810 255.000000)"><ellipse fill="#000" fill-opacity=".501961" cx="0" cy="0" rx="1" ry="1" /></g><g transform="translate(87.558978 222.201513) rotate(368.272626) scale(227.907865 42.921782)"><ellipse fill="#4c0000" fill-opacity=".501961" cx="0" cy="0" rx="1" ry="1" /></g><g transform="translate(159.593671 121.187259) rotate(117.598757) scale(64.425576 122.191831)"><ellipse fill="#0ff" fill-opacity=".501961" cx="0" cy="0" rx="1" ry="1" /></g><g transform="translate(14.151306 77.359132) rotate(94.488192) scale(254.668350 31.155987)"><ellipse fill="#331109" fill-opacity=".501961" cx="0" cy="0" rx="1" ry="1" /></g><path d="M0 0h640v640H0z" fill="#05001b" /><g transform="translate(70.616642 14.755739) rotate(166.792107) scale(111.730918 26.188045)"><ellipse fill="#010025" fill-opacity=".501961" cx="0" cy="0" rx="1" ry="1" /></g><g transform="translate(60.365850 155.728557) rotate(220.319855) scale(37.196983 24.222062)"><ellipse fill="#7c6c2b" fill-opacity=".501961" cx="0" cy="0" rx="1" ry="1" /></g></g></svg>