<svg xmlns="http://www.w3.org/2000/svg" viewBox="0 0 640 640"><filter id="b"><feGaussianBlur stdDeviation="12" /></filter><path d="M0 0h640v640H0z" fill="#1b646b" /><g filter="url(#b)" transform="scale(2.500000) translate(0.5 0.5)"><g transform="translate(92.186925 110.001141) rotate(252.903269) scale(61.832582 91.651905)"><ellipse fill="#0ff" fill-opacity=".501961" cx="0" cy="0" rx="1" ry="1" /></g><g transform="translate(183.634092 26.926525) rotate(5.025901) scale(249.080495 32.831201)"><ellipse fill="#0c0000" fill-opacity=".501961" cx="0" cy="0" rx="1" ry="1" /></g><g transform="translate(85.196365 112.066465) rotate(266.465088) scale(58.841814 76.499227)"><ellipse fill="#0ff" fill-opacity=".501961" cx="0" cy="0" rx="1" ry="1" /></g><g transform="translate(171.910109 215.411372) rotate(169.762375) scale(247.177080 61.230020)"><ellipse fill="#4b0705" fill-opacity=".501961" cx="0" cy="0" rx="1" ry="1" /></g><g transform="translate(231.459089 109.996099) rotate(-103.932689) scale(46.339026 58.315742)"><ellipse fill="#1c0009" fill-opacity=".501961" cx="0" cy="0" rx="1" ry="1" /></g><g transform="translate(82.322874 118.763613) rotate(63.269788) scale(32.661454 126.633095)"><ellipse fill="#01ffff" fill-opacity=".501961" cx="0" cy="0" rx="1" ry="1" /></g><ellipse fill="#00000a" fill-opacity=".501961" cx="134" cy="47" rx="25" ry="20" /><path d="M0 0h640v640H0z" fill="#0ff" /></g></svg>