<svg xmlns="http://www.w3.org/2000/svg" viewBox="0 0 640 640"><filter id="b"><feGaussianBlur stdDeviation="12" /></filter><path d="M0 0h640v640H0z" fill="#423023" /><g filter="url(#b)" transform="scale(2.500000) translate(0.5 0.5)"><g transform="translate(155.752025 46.758970) rotate(9.257312) scale(61.583658 28.950981)"><ellipse fill="#c4b29b" fill-opacity=".501961" cx="0" cy="0" rx="1" ry="1" /></g><g transform="translate(102.247929 145.610165) rotate(19.404703) scale(108.844137 70.605641)"><ellipse fill="#000" fill-opacity=".501961" cx="0" cy="0" rx="1" ry="1" /></g><g transform="translate(12.723937 23.944990) rotate(200.379214) scale(35.550234 14.606869)"><ellipse fill="#d1d7be" fill-opacity=".501961" cx="0" cy="0" rx="1" ry="1" /></g><g transform="translate(186.848478 232.835220) rotate(125.376239) scale(24.329590 77.334702)"><ellipse fill="#b94e0e" fill-opacity=".501961" cx="0" cy="0" rx="1" ry="1" /></g><path fill="#ac6d3e" fill-opacity=".501961" d="M178 92l71 94 18-97z" /><g transform="translate(16 192) rotate(201) scale(26 44)"><path d="M0 0h640v640H0z" fill="#ff6606" /></g><path d="M0 0h640v640H0z" fill="#fed4be" /><path fill="#fc660b" fill-opacity=".501961" d="M246.229574 157.914443 256.879105 47.707346 240.940177 51.278136 242.106702 42.996431z" /></g></svg>