<svg xmlns="http://www.w3.org/2000/svg" viewBox="0 0 640 640"><filter id="b"><feGaussianBlur stdDeviation="12" /></filter><path d="M0 0h640v640H0z" fill="#210f04" /><g filter="url(#b)" transform="scale(2.500000) translate(0.5 0.5)"><g transform="translate(240.896979 167.213815) rotate(282.755384) scale(28.253237 43.982228)"><ellipse fill="#f95b00" fill-opacity=".501961" cx="0" cy="0" rx="1" ry="1" /></g><g transform="translate(36.629418 239.632799) rotate(92.185279) scale(46.337642 81.906538)"><ellipse fill="#833404" fill-opacity=".501961" cx="0" cy="0" rx="1" ry="1" /></g><ellipse fill="#dd5503" fill-opacity=".501961" cx="255" cy="165" rx="12" ry="109" /><ellipse fill="#000103" fill-opacity=".501961" cx="97" cy="72" rx="128" ry="128" /><g transform="translate(34 84) rotate(10) scale(56 20)"><path d="M0 0h640v640H0z" fill="#863000" /></g><path fill="#e65a05" fill-opacity=".501961" d="M50 271 29 229 2 247z" /><path d="M0 0h640v640H0z" fill="#e2874f" /><path fill="#020000" fill-opacity=".501961" d="M45.539581 194.808259l96.272311 43.868864L57.339338 239.499809 55.020597 225.929491z" /></g></svg>