<svg xmlns="http://www.w3.org/2000/svg" viewBox="0 0 640 640"><filter id="b"><feGaussianBlur stdDeviation="12" /></filter><path d="M0 0h640v640H0z" fill="#62839f" /><g filter="url(#b)" transform="scale(2.500000) translate(0.5 0.5)"><g transform="translate(118.962082 133.995401) rotate(3.341293) scale(64.849648 28.050193)"><ellipse fill="#7ca269" fill-opacity=".501961" cx="0" cy="0" rx="1" ry="1" /></g><ellipse fill="#3d4e95" fill-opacity=".501961" cx="242" cy="17" rx="63" ry="76" /><ellipse fill="#859aff" fill-opacity=".501961" cx="42" cy="133" rx="15" ry="19" /><g transform="translate(65.158866 153.957341) rotate(21.070101) scale(35.563766 5.746059)"><ellipse fill="#7e98ff" fill-opacity=".501961" cx="0" cy="0" rx="1" ry="1" /></g><g transform="translate(65.286586 111.534885) rotate(247.307891) scale(5.233564 37.645546)"><ellipse fill="#7b97ff" fill-opacity=".501961" cx="0" cy="0" rx="1" ry="1" /></g><g transform="translate(221.498684 164.564875) rotate(390.133406) scale(96.873745 13.695997)"><ellipse fill="#748572" fill-opacity=".501961" cx="0" cy="0" rx="1" ry="1" /></g><path fill="#7ea4ff" fill-opacity=".501961" d="M192.926019 135.490672 153.908991 111.142652 164.974309 105.513111 202.854123 128.258269z" /><ellipse fill="#568248" fill-opacity=".501961" cx="89" cy="26" rx="49" ry="6" /></g></svg>