<svg xmlns="http://www.w3.org/2000/svg" viewBox="0 0 640 640"><filter id="b"><feGaussianBlur stdDeviation="12" /></filter><path d="M0 0h640v640H0z" fill="#5c759c" /><g filter="url(#b)" transform="scale(2.500000) translate(0.5 0.5)"><g transform="translate(120.092436 0.000000) rotate(179.736334) scale(211.062550 27.077090)"><ellipse fill="#d31958" fill-opacity=".501961" cx="0" cy="0" rx="1" ry="1" /></g><ellipse fill="#0025f3" fill-opacity=".501961" cx="166" cy="36" rx="212" ry="12" /><g transform="translate(93 206) rotate(-2) scale(88 59)"><path d="M0 0h640v640H0z" fill="#79bc52" /></g><path fill="#5558ff" fill-opacity=".501961" d="M95 271-16 237l183-3z" /><g transform="translate(61.778004 64.622242) rotate(170.142996) scale(37.932385 22.741644)"><ellipse fill="#5e724d" fill-opacity=".501961" cx="0" cy="0" rx="1" ry="1" /></g><path d="M0 0h640v640H0z" fill="#80ff7b" /><g transform="translate(173 88) rotate(267) scale(12 47)"><path d="M0 0h640v640H0z" fill="#2cffe4" /></g><g transform="translate(178.963749 125.368947) rotate(171.799000) scale(43.691026 6.860862)"><ellipse fill="#549dff" fill-opacity=".501961" cx="0" cy="0" rx="1" ry="1" /></g></g></svg>