<svg xmlns="http://www.w3.org/2000/svg" viewBox="0 0 640 640"><filter id="b"><feGaussianBlur stdDeviation="12" /></filter><path d="M0 0h640v640H0z" fill="#55679a" /><g filter="url(#b)" transform="scale(2.500000) translate(0.5 0.5)"><g transform="translate(17.055552 41.197214) rotate(119.315097) scale(148.046809 34.958894)"><ellipse fill="#c72740" fill-opacity=".501961" cx="0" cy="0" rx="1" ry="1" /></g><ellipse fill="#3539ff" fill-opacity=".501961" cx="208" cy="33" rx="134" ry="17" /><g transform="translate(51.086930 89.950802) rotate(30.770370) scale(17.103943 70.218003)"><ellipse fill="#2830ff" fill-opacity=".501961" cx="0" cy="0" rx="1" ry="1" /></g><g transform="translate(24.736271 242.330425) rotate(159.984005) scale(28.382692 186.501812)"><ellipse fill="#412b4c" fill-opacity=".501961" cx="0" cy="0" rx="1" ry="1" /></g><ellipse fill="#d52b3a" fill-opacity=".501961" cx="255" cy="0" rx="67" ry="23" /><g transform="translate(69.014699 29.772616) rotate(155.894586) scale(44.096945 11.548089)"><ellipse fill="#003750" fill-opacity=".501961" cx="0" cy="0" rx="1" ry="1" /></g><ellipse fill="#3fb0ff" fill-opacity=".501961" cx="51" cy="164" rx="18" ry="32" /><g transform="translate(102 255) rotate(362) scale(48 39)"><path d="M0 0h640v640H0z" fill="#16df4b" /></g></g></svg>