<svg xmlns="http://www.w3.org/2000/svg" viewBox="0 0 640 640"><filter id="b"><feGaussianBlur stdDeviation="12" /></filter><path d="M0 0h640v640H0z" fill="#738aa6" /><g filter="url(#b)" transform="scale(2.500000) translate(0.5 0.5)"><g transform="translate(129.148292 18.960735) rotate(344.724461) scale(254.680418 67.045560)"><ellipse fill="#268aff" fill-opacity=".501961" cx="0" cy="0" rx="1" ry="1" /></g><g transform="translate(193.470751 172.122099) rotate(29.450788) scale(81.150677 127.539851)"><ellipse fill="#a18461" fill-opacity=".501961" cx="0" cy="0" rx="1" ry="1" /></g><g transform="translate(94.166186 89.819454) rotate(-14.925887) scale(96.642741 48.378611)"><ellipse fill="#7ea2e0" fill-opacity=".501961" cx="0" cy="0" rx="1" ry="1" /></g><ellipse fill="#aea9ae" fill-opacity=".501961" cx="71" cy="190" rx="80" ry="30" /><g transform="translate(197.013390 13.907626) rotate(14.304055) scale(227.280702 26.195124)"><ellipse fill="#106bd8" fill-opacity=".501961" cx="0" cy="0" rx="1" ry="1" /></g><g transform="translate(20.418046 151.651609) rotate(90.702257) scale(12.202841 114.119755)"><ellipse fill="#8a774a" fill-opacity=".501961" cx="0" cy="0" rx="1" ry="1" /></g><g transform="translate(244.537476 217.423378) rotate(210.458040) scale(29.973421 153.128473)"><ellipse fill="#6b6853" fill-opacity=".501961" cx="0" cy="0" rx="1" ry="1" /></g><path fill="#ff2e00" fill-opacity=".501961" d="M195.171232 85.857114 206.828667 81.346159 221.449415 97.846073 211.349698 108.954574z" /></g></svg>