<svg xmlns="http://www.w3.org/2000/svg" viewBox="0 0 640 640"><filter id="b"><feGaussianBlur stdDeviation="12" /></filter><path d="M0 0h640v640H0z" fill="#6f7385" /><g filter="url(#b)" transform="scale(2.500000) translate(0.5 0.5)"><g transform="translate(115.095248 230.520652) rotate(93.644692) scale(51.992906 255.000000)"><ellipse fill="#413015" fill-opacity=".501961" cx="0" cy="0" rx="1" ry="1" /></g><g transform="translate(134.555645 53.091112) rotate(87.428191) scale(71.435900 165.395747)"><ellipse fill="#8099e0" fill-opacity=".501961" cx="0" cy="0" rx="1" ry="1" /></g><g transform="translate(92.826023 6.819560) rotate(83.508892) scale(24.046686 255.000000)"><ellipse fill="#1050c3" fill-opacity=".501961" cx="0" cy="0" rx="1" ry="1" /></g><g transform="translate(63.091775 123.234854) rotate(262.435889) scale(71.220959 45.456303)"><ellipse fill="#b2936a" fill-opacity=".501961" cx="0" cy="0" rx="1" ry="1" /></g><path fill="#aaa185" fill-opacity=".501961" d="M106 146 195 37l62 83z" /><ellipse fill="#777167" fill-opacity=".501961" cx="163" cy="180" rx="135" ry="40" /><g transform="translate(126.433062 252.449039) rotate(183.304674) scale(255.000000 20.205248)"><ellipse fill="#392e26" fill-opacity=".501961" cx="0" cy="0" rx="1" ry="1" /></g><ellipse fill="#a09ed2" fill-opacity=".501961" cx="161" cy="53" rx="99" ry="23" /></g></svg>