<svg xmlns="http://www.w3.org/2000/svg" viewBox="0 0 1536 1024"><filter id="b"><feGaussianBlur stdDeviation="12" /></filter><path d="M0 0h1536v1024H0z" fill="#a2918d" /><g filter="url(#b)" transform="scale(6.000000) translate(0.5 0.5)"><g transform="translate(219.657602 46.693307) rotate(302.656825) scale(54.940324 44.738035)"><ellipse fill="#fff" fill-opacity=".501961" cx="0" cy="0" rx="1" ry="1" /></g><ellipse fill="#724c0e" fill-opacity=".501961" cx="112" cy="46" rx="63" ry="63" /><path fill="#fff" fill-opacity=".501961" d="M-9 185 57 56-16-6z" /><g transform="translate(122.859908 133.064236) rotate(85.726965) scale(86.863533 72.633940)"><ellipse fill="#575052" fill-opacity=".501961" cx="0" cy="0" rx="1" ry="1" /></g><g transform="translate(3.423408 65.484557) rotate(224.495055) scale(47.835453 36.247511)"><ellipse fill="#fffdff" fill-opacity=".501961" cx="0" cy="0" rx="1" ry="1" /></g><g transform="translate(223.307732 126.977232) rotate(273.082962) scale(18.885671 46.799413)"><ellipse fill="#b8c2e4" fill-opacity=".501961" cx="0" cy="0" rx="1" ry="1" /></g><g transform="translate(221 43) rotate(91) scale(94 70)"><path d="M0 0h1536v1024H0z" fill="#e4d5ff" /></g><g transform="translate(33.551407 126.816552) rotate(83.172054) scale(15.812138 76.106251)"><ellipse fill="#b9bbd9" fill-opacity=".501961" cx="0" cy="0" rx="1" ry="1" /></g></g></svg>