<svg xmlns="http://www.w3.org/2000/svg" viewBox="0 0 640 640"><filter id="b"><feGaussianBlur stdDeviation="12" /></filter><path d="M0 0h640v640H0z" fill="#6f7384" /><g filter="url(#b)" transform="scale(2.500000) translate(0.5 0.5)"><g transform="translate(114.053754 226.216710) rotate(273.417234) scale(47.575037 255.000000)"><ellipse fill="#403115" fill-opacity=".501961" cx="0" cy="0" rx="1" ry="1" /></g><g transform="translate(150.557578 51.919162) rotate(172.983858) scale(167.739436 69.775962)"><ellipse fill="#819cdf" fill-opacity=".501961" cx="0" cy="0" rx="1" ry="1" /></g><g transform="translate(130.673402 0.000000) rotate(262.232571) scale(27.378173 255.000000)"><ellipse fill="#1153c8" fill-opacity=".501961" cx="0" cy="0" rx="1" ry="1" /></g><path fill="#b99a6f" fill-opacity=".501961" d="M1 75 93 230 106 51z" /><g transform="translate(187.577514 106.573927) rotate(113.421819) scale(64.991834 36.886661)"><ellipse fill="#a39f85" fill-opacity=".501961" cx="0" cy="0" rx="1" ry="1" /></g><g transform="translate(121.196015 250.289160) rotate(2.373821) scale(196.800548 21.145679)"><ellipse fill="#3b2f28" fill-opacity=".501961" cx="0" cy="0" rx="1" ry="1" /></g><g transform="translate(151 165) rotate(84) scale(84 215)"><path d="M0 0h640v640H0z" fill="#7c7469" /></g><g transform="translate(137.137205 53.078946) rotate(-17.351700) scale(43.946517 26.849993)"><ellipse fill="#959ee9" fill-opacity=".501961" cx="0" cy="0" rx="1" ry="1" /></g></g></svg>