<svg xmlns="http://www.w3.org/2000/svg" viewBox="0 0 640 640"><filter id="b"><feGaussianBlur stdDeviation="12" /></filter><path d="M0 0h640v640H0z" fill="#62839f" /><g filter="url(#b)" transform="scale(2.500000) translate(0.5 0.5)"><ellipse fill="#3d4e95" fill-opacity=".501961" cx="243" cy="17" rx="64" ry="77" /><ellipse fill="#7ea563" fill-opacity=".501961" cx="112" cy="132" rx="60" ry="27" /><g transform="translate(45.477886 129.866486) rotate(127.968382) scale(24.804645 13.816967)"><ellipse fill="#849fff" fill-opacity=".501961" cx="0" cy="0" rx="1" ry="1" /></g><g transform="translate(74.836505 157.833336) rotate(14.718870) scale(43.014166 5.445008)"><ellipse fill="#7f93ff" fill-opacity=".501961" cx="0" cy="0" rx="1" ry="1" /></g><g transform="translate(26 108) rotate(340) scale(121 7)"><path d="M0 0h640v640H0z" fill="#797fff" /></g><g transform="translate(220.432097 162.591909) rotate(298.595480) scale(14.644041 91.982570)"><ellipse fill="#758872" fill-opacity=".501961" cx="0" cy="0" rx="1" ry="1" /></g><g transform="translate(178 120) rotate(205) scale(48 10)"><path d="M0 0h640v640H0z" fill="#7ea8ff" /></g><path fill="#7c9dff" fill-opacity=".501961" d="M92.875473 94.710085 129.051307 100.953556 40.06696 118.661627 52.13576 110.680046z" /></g></svg>