<svg xmlns="http://www.w3.org/2000/svg" viewBox="0 0 640 640"><filter id="b"><feGaussianBlur stdDeviation="12" /></filter><path d="M0 0h640v640H0z" fill="#5b6f9b" /><g filter="url(#b)" transform="scale(2.500000) translate(0.5 0.5)"><g transform="translate(107.654798 8.673607) rotate(177.047825) scale(205.026182 20.584515)"><ellipse fill="#db1f94" fill-opacity=".501961" cx="0" cy="0" rx="1" ry="1" /></g><ellipse fill="#c39086" fill-opacity=".501961" cx="177" cy="185" rx="81" ry="26" /><g transform="translate(71.755708 203.206845) rotate(20.402809) scale(129.306114 20.611658)"><ellipse fill="#068eac" fill-opacity=".501961" cx="0" cy="0" rx="1" ry="1" /></g><g transform="translate(78 30) rotate(267) scale(22 255)"><path d="M0 0h640v640H0z" fill="#5933ff" /></g><g transform="translate(219.352355 56.399011) rotate(334.568193) scale(51.734503 37.330280)"><ellipse fill="#3e2696" fill-opacity=".501961" cx="0" cy="0" rx="1" ry="1" /></g><g transform="translate(99.607504 85.602137) rotate(169.868356) scale(71.288474 19.471984)"><ellipse fill="#519c5a" fill-opacity=".501961" cx="0" cy="0" rx="1" ry="1" /></g><g transform="translate(227.027548 226.535374) rotate(87.493580) scale(18.792307 94.268762)"><ellipse fill="#0877a7" fill-opacity=".501961" cx="0" cy="0" rx="1" ry="1" /></g><ellipse fill="#d8474d" fill-opacity=".501961" cx="212" cy="49" rx="50" ry="6" /></g></svg>