<svg xmlns="http://www.w3.org/2000/svg" viewBox="0 0 1292 1028"><filter id="b"><feGaussianBlur stdDeviation="12" /></filter><path d="M0 0h1292v1028H0z" fill="#7c7c7c" /><g filter="url(#b)" transform="scale(5.046875) translate(0.5 0.5)"><g transform="translate(76.631859 202.000000) rotate(186.709982) scale(104.815684 31.313794)"><ellipse fill="#fff" fill-opacity=".501961" cx="0" cy="0" rx="1" ry="1" /></g><ellipse fill="#49453f" fill-opacity=".501961" cx="186" cy="117" rx="68" ry="68" /><g transform="translate(29.908847 105.695989) rotate(244.933890) scale(53.453291 39.993947)"><ellipse fill="#b4bfc0" fill-opacity=".501961" cx="0" cy="0" rx="1" ry="1" /></g><ellipse fill="#4f2d30" fill-opacity=".501961" cx="225" cy="28" rx="28" ry="38" /><g transform="translate(112.043451 79.927611) rotate(246.101991) scale(113.275771 31.453680)"><ellipse fill="#4a4e55" fill-opacity=".501961" cx="0" cy="0" rx="1" ry="1" /></g><g transform="translate(56.348206 198.208908) rotate(1.983554) scale(63.526779 15.006974)"><ellipse fill="#fff" fill-opacity=".501961" cx="0" cy="0" rx="1" ry="1" /></g><g transform="translate(172.071816 41.518372) rotate(23.609807) scale(17.406286 55.773738)"><ellipse fill="#a1a3a9" fill-opacity=".501961" cx="0" cy="0" rx="1" ry="1" /></g><ellipse fill="#fff" fill-opacity=".501961" cx="255" cy="86" rx="2" ry="135" /></g></svg>