<svg xmlns="http://www.w3.org/2000/svg" viewBox="0 0 1928 3212"><filter id="b"><feGaussianBlur stdDeviation="12" /></filter><path d="M0 0h1928v3212H0z" fill="#2ca76b" /><g filter="url(#b)" transform="scale(12.546875) translate(0.5 0.5)"><g transform="translate(10.666680 122.817424) rotate(88.235187) scale(152.000000 42.475545)"><ellipse fill="#a12f58" fill-opacity=".501961" cx="0" cy="0" rx="1" ry="1" /></g><g transform="translate(136.963626 22.437476) rotate(76.902580) scale(27.330010 62.831990)"><ellipse fill="#0ff" fill-opacity=".501961" cx="0" cy="0" rx="1" ry="1" /></g><g transform="translate(123.207865 75.958973) rotate(9.022335) scale(71.383916 24.885681)"><ellipse fill="#0f0" fill-opacity=".501961" cx="0" cy="0" rx="1" ry="1" /></g><g transform="translate(135.543774 236.838384) rotate(296.692531) scale(32.020891 40.244187)"><ellipse fill="#0f0" fill-opacity=".501961" cx="0" cy="0" rx="1" ry="1" /></g><path d="M0 0h1928v3212H0z" fill="#00fdff" /><g transform="translate(76.282143 230.836938) rotate(222.728589) scale(20.710983 30.720059)"><ellipse fill="#0ff" fill-opacity=".501961" cx="0" cy="0" rx="1" ry="1" /></g><ellipse fill="#250028" fill-opacity=".501961" cx="126" cy="147" rx="75" ry="13" /><ellipse fill="#0ff" fill-opacity=".501961" cx="106" cy="124" rx="32" ry="13" /></g></svg>