<svg xmlns="http://www.w3.org/2000/svg" viewBox="0 0 1920 1920"><filter id="b"><feGaussianBlur stdDeviation="12" /></filter><path d="M0 0h1920v1920H0z" fill="#7e807f" /><g filter="url(#b)" transform="scale(7.500000) translate(0.5 0.5)"><ellipse fill="#56c6d5" fill-opacity=".501961" cx="249" cy="42" rx="85" ry="85" /><g transform="translate(215.387761 245.154025) rotate(118.577443) scale(23.959816 57.254876)"><ellipse fill="#b4c5f2" fill-opacity=".501961" cx="0" cy="0" rx="1" ry="1" /></g><g transform="translate(77.536279 187.525478) rotate(185.779589) scale(219.594395 21.922463)"><ellipse fill="#7b5534" fill-opacity=".501961" cx="0" cy="0" rx="1" ry="1" /></g><g transform="translate(108.878191 23.545151) rotate(99.816357) scale(16.771659 180.870515)"><ellipse fill="#a26540" fill-opacity=".501961" cx="0" cy="0" rx="1" ry="1" /></g><g transform="translate(218.422178 0.000000) rotate(193.523736) scale(63.503004 28.009656)"><ellipse fill="#00c3d0" fill-opacity=".501961" cx="0" cy="0" rx="1" ry="1" /></g><g transform="translate(216 99) rotate(189) scale(89 20)"><path d="M0 0h1920v1920H0z" fill="#00fdd5" /></g><ellipse fill="#aecbff" fill-opacity=".501961" cx="245" cy="159" rx="77" ry="12" /><path fill="#cdd0e2" fill-opacity=".501961" d="M90 271l-6-67 55 25z" /></g></svg>