<svg xmlns="http://www.w3.org/2000/svg" viewBox="0 0 1920 1920"><filter id="b"><feGaussianBlur stdDeviation="12" /></filter><path d="M0 0h1920v1920H0z" fill="#6f6765" /><g filter="url(#b)" transform="scale(7.500000) translate(0.5 0.5)"><g transform="translate(212.652813 137.278909) rotate(93.181958) scale(212.837206 32.120740)"><ellipse fill="#2c1f3a" fill-opacity=".501961" cx="0" cy="0" rx="1" ry="1" /></g><ellipse fill="#000" fill-opacity=".501961" cx="70" cy="199" rx="228" ry="11" /><g transform="translate(74.045675 165.750825) rotate(94.816152) scale(15.380374 196.082359)"><ellipse fill="#ddc59a" fill-opacity=".501961" cx="0" cy="0" rx="1" ry="1" /></g><path d="M0 0h1920v1920H0z" fill="#000" /><ellipse fill="#000" fill-opacity=".501961" cx="78" cy="114" rx="91" ry="12" /><g transform="translate(71.153683 69.341745) rotate(178.224216) scale(104.956592 31.803062)"><ellipse fill="#b9b6ad" fill-opacity=".501961" cx="0" cy="0" rx="1" ry="1" /></g><ellipse fill="#e7faff" fill-opacity=".501961" cx="205" cy="215" rx="239" ry="5" /><g transform="translate(89.496030 0.000000) rotate(269.799882) scale(13.901498 156.574609)"><ellipse fill="#ffb57f" fill-opacity=".501961" cx="0" cy="0" rx="1" ry="1" /></g></g></svg>