<svg xmlns="http://www.w3.org/2000/svg" viewBox="0 0 2560 1920"><filter id="b"><feGaussianBlur stdDeviation="12" /></filter><path d="M0 0h2560v1920H0z" fill="#47746c" /><g filter="url(#b)" transform="scale(10.000000) translate(0.5 0.5)"><ellipse fill="#0ff" fill-opacity=".501961" cx="94" cy="25" rx="35" ry="35" /><g transform="translate(252.399625 91.001153) rotate(72.411188) scale(27.494024 32.918697)"><ellipse fill="#0ff" fill-opacity=".501961" cx="0" cy="0" rx="1" ry="1" /></g><g transform="translate(34.866211 42.877641) rotate(160.570236) scale(22.139994 56.222077)"><ellipse fill="#020000" fill-opacity=".501961" cx="0" cy="0" rx="1" ry="1" /></g><g transform="translate(7.081447 88.449337) rotate(127.824225) scale(23.939084 29.221627)"><ellipse fill="#0ff" fill-opacity=".501961" cx="0" cy="0" rx="1" ry="1" /></g><g transform="translate(156.597604 52.863930) rotate(20.391110) scale(26.650877 45.265445)"><ellipse fill="#fbbbb2" fill-opacity=".501961" cx="0" cy="0" rx="1" ry="1" /></g><g transform="translate(98.097086 173.003296) rotate(471.951591) scale(26.251847 140.614476)"><ellipse fill="#2c0900" fill-opacity=".501961" cx="0" cy="0" rx="1" ry="1" /></g><path d="M0 0h2560v1920H0z" fill="#0ff" /><g transform="translate(107.158552 73.406130) rotate(147.786200) scale(18.623295 17.376227)"><ellipse fill="#820000" fill-opacity=".501961" cx="0" cy="0" rx="1" ry="1" /></g></g></svg>