<svg xmlns="http://www.w3.org/2000/svg" viewBox="0 0 1292 1028"><filter id="b"><feGaussianBlur stdDeviation="12" /></filter><path d="M0 0h1292v1028H0z" fill="#7c7c7c" /><g filter="url(#b)" transform="scale(5.046875) translate(0.5 0.5)"><g transform="translate(82.755564 196.123452) rotate(187.350159) scale(122.238640 23.320813)"><ellipse fill="#fff" fill-opacity=".501961" cx="0" cy="0" rx="1" ry="1" /></g><g transform="translate(181.552806 121.454162) rotate(257.751959) scale(62.312168 73.811673)"><ellipse fill="#4a453f" fill-opacity=".501961" cx="0" cy="0" rx="1" ry="1" /></g><g transform="translate(29.267004 103.320692) rotate(155.188963) scale(40.328123 55.237170)"><ellipse fill="#b3bfc0" fill-opacity=".501961" cx="0" cy="0" rx="1" ry="1" /></g><ellipse fill="#46282a" fill-opacity=".501961" cx="224" cy="34" rx="25" ry="37" /><g transform="translate(82.948092 39.517878) rotate(344.654873) scale(21.155562 94.696186)"><ellipse fill="#384d55" fill-opacity=".501961" cx="0" cy="0" rx="1" ry="1" /></g><g transform="translate(54.017585 202.000000) rotate(180.843489) scale(66.860634 20.291935)"><ellipse fill="#fff" fill-opacity=".501961" cx="0" cy="0" rx="1" ry="1" /></g><path fill="#a0d3ca" fill-opacity=".501961" d="M150 56l45 8-52 29z" /><ellipse fill="#fff" fill-opacity=".501961" cx="255" cy="74" rx="2" ry="151" /></g></svg>