<svg xmlns="http://www.w3.org/2000/svg" viewBox="0 0 1284 1286"><filter id="b"><feGaussianBlur stdDeviation="12" /></filter><path d="M0 0h1284v1286H0z" fill="#828182" /><g filter="url(#b)" transform="scale(5.023438) translate(0.5 0.5)"><ellipse fill="#fff" fill-opacity=".501961" cx="0" cy="180" rx="1" ry="196" /><g transform="translate(127 0) rotate(271) scale(1 255)"><path d="M0 0h1284v1286H0z" fill="#fff" /></g><path fill="#3d4333" fill-opacity=".501961" d="M7.380398 220.051203 43.132557 219.876336 17.095862 212.941284 1.129807 211.077268z" /><path fill="#d3d6d5" fill-opacity=".501961" d="M29.781153 110.080835 9.929283 109.294913 9.301819 120.326719 23.639963 111.544597z" /><path d="M0 0h1284v1286H0z" fill="#544f4f" /><path fill="#b8b2b3" fill-opacity=".501961" d="M177 41 167 21 141 8z" /><path fill="#6a6567" fill-opacity=".501961" d="M28 108-1 132l78-27z" /><g transform="translate(25 197) rotate(97) scale(20 13)"><path d="M0 0h1284v1286H0z" fill="#615c66" /></g></g></svg>