<svg xmlns="http://www.w3.org/2000/svg" viewBox="0 0 640 640"><filter id="b"><feGaussianBlur stdDeviation="12" /></filter><path d="M0 0h640v640H0z" fill="#62839f" /><g filter="url(#b)" transform="scale(2.500000) translate(0.5 0.5)"><g transform="translate(232.656088 39.339636) rotate(318.479657) scale(46.569551 61.500151)"><ellipse fill="#3d4e95" fill-opacity=".501961" cx="0" cy="0" rx="1" ry="1" /></g><g transform="translate(109.970587 132.656330) rotate(359.759414) scale(56.660528 26.966629)"><ellipse fill="#7fa564" fill-opacity=".501961" cx="0" cy="0" rx="1" ry="1" /></g><path fill="#81a8ff" fill-opacity=".501961" d="M54 108l16 55-50-28z" /><g transform="translate(84.254070 15.404258) rotate(355.292970) scale(48.978052 3.524172)"><ellipse fill="#547dff" fill-opacity=".501961" cx="0" cy="0" rx="1" ry="1" /></g><g transform="translate(174.936935 118.062354) rotate(25.871550) scale(29.463206 4.954914)"><ellipse fill="#7da3ff" fill-opacity=".501961" cx="0" cy="0" rx="1" ry="1" /></g><g transform="translate(19.779676 109.079178) rotate(339.932952) scale(61.308660 3.677082)"><ellipse fill="#7785ff" fill-opacity=".501961" cx="0" cy="0" rx="1" ry="1" /></g><g transform="translate(216.979027 161.383875) rotate(31.476574) scale(82.287434 13.596608)"><ellipse fill="#75876f" fill-opacity=".501961" cx="0" cy="0" rx="1" ry="1" /></g><g transform="translate(67.761260 200.048048) rotate(96.092752) scale(2.919242 78.396169)"><ellipse fill="#5989ff" fill-opacity=".501961" cx="0" cy="0" rx="1" ry="1" /></g></g></svg>