<svg xmlns="http://www.w3.org/2000/svg" viewBox="0 0 640 640"><filter id="b"><feGaussianBlur stdDeviation="12" /></filter><path d="M0 0h640v640H0z" fill="#67879d" /><g filter="url(#b)" transform="scale(2.500000) translate(0.5 0.5)"><g transform="translate(145.902998 2.142547) rotate(95.216201) scale(32.707178 160.405218)"><ellipse fill="#3320a8" fill-opacity=".501961" cx="0" cy="0" rx="1" ry="1" /></g><g transform="translate(63.808670 43.886377) rotate(359.119362) scale(87.342145 22.457230)"><ellipse fill="#2bf3a2" fill-opacity=".501961" cx="0" cy="0" rx="1" ry="1" /></g><path d="M0 0h640v640H0z" fill="#c54057" /><g transform="translate(84.749705 75.305760) rotate(353.137658) scale(149.236626 9.887882)"><ellipse fill="#3a428f" fill-opacity=".501961" cx="0" cy="0" rx="1" ry="1" /></g><g transform="translate(101.695548 213.861727) rotate(91.119365) scale(94.968901 196.564010)"><ellipse fill="#8c9ea1" fill-opacity=".501961" cx="0" cy="0" rx="1" ry="1" /></g><g transform="translate(140.667002 0.685650) rotate(271.036938) scale(7.775506 165.235145)"><ellipse fill="#0040ff" fill-opacity=".501961" cx="0" cy="0" rx="1" ry="1" /></g><g transform="translate(190.818153 55.538112) rotate(305.648633) scale(16.496297 52.074909)"><ellipse fill="#3e2ca6" fill-opacity=".501961" cx="0" cy="0" rx="1" ry="1" /></g><ellipse fill="#007cff" fill-opacity=".501961" cx="15" cy="24" rx="80" ry="4" /></g></svg>