<svg xmlns="http://www.w3.org/2000/svg" viewBox="0 0 640 640"><filter id="b"><feGaussianBlur stdDeviation="12" /></filter><path d="M0 0h640v640H0z" fill="#5b6f9b" /><g filter="url(#b)" transform="scale(2.500000) translate(0.5 0.5)"><g transform="translate(110.292745 0.000000) rotate(356.068490) scale(255.000000 29.431084)"><ellipse fill="#da1f97" fill-opacity=".501961" cx="0" cy="0" rx="1" ry="1" /></g><ellipse fill="#c89083" fill-opacity=".501961" cx="176" cy="188" rx="79" ry="23" /><path fill="#008eaf" fill-opacity=".501961" d="M271 244 94 242-16 163z" /><g transform="translate(78.559860 29.036910) rotate(178.399563) scale(148.466912 10.811078)"><ellipse fill="#5e34ff" fill-opacity=".501961" cx="0" cy="0" rx="1" ry="1" /></g><g transform="translate(221.277333 71.193729) rotate(9.089682) scale(73.624012 12.587169)"><ellipse fill="#0035c2" fill-opacity=".501961" cx="0" cy="0" rx="1" ry="1" /></g><path fill="#2796b9" fill-opacity=".501961" d="M169 82-4 191l64 31z" /><ellipse fill="#559654" fill-opacity=".501961" cx="104" cy="84" rx="66" ry="19" /><g transform="translate(217.384521 48.688624) rotate(91.382986) scale(10.811403 55.720252)"><ellipse fill="#86265a" fill-opacity=".501961" cx="0" cy="0" rx="1" ry="1" /></g></g></svg>