<svg xmlns="http://www.w3.org/2000/svg" viewBox="0 0 640 640"><filter id="b"><feGaussianBlur stdDeviation="12" /></filter><path d="M0 0h640v640H0z" fill="#55679a" /><g filter="url(#b)" transform="scale(2.500000) translate(0.5 0.5)"><g transform="translate(0.000000 58.833443) rotate(392.657841) scale(41.083807 189.168385)"><ellipse fill="#c42741" fill-opacity=".501961" cx="0" cy="0" rx="1" ry="1" /></g><g transform="translate(49.549192 91.154557) rotate(300.742371) scale(68.541093 17.520978)"><ellipse fill="#282fff" fill-opacity=".501961" cx="0" cy="0" rx="1" ry="1" /></g><ellipse fill="#3437ff" fill-opacity=".501961" cx="192" cy="32" rx="110" ry="16" /><g transform="translate(7.316599 201.825893) rotate(66.746703) scale(170.256195 30.750309)"><ellipse fill="#422c4d" fill-opacity=".501961" cx="0" cy="0" rx="1" ry="1" /></g><g transform="translate(248.219668 7.908661) rotate(6.448063) scale(60.490959 16.538964)"><ellipse fill="#d22b3d" fill-opacity=".501961" cx="0" cy="0" rx="1" ry="1" /></g><g transform="translate(58.974555 188.694618) rotate(257.104353) scale(48.450931 20.275472)"><ellipse fill="#45b8d4" fill-opacity=".501961" cx="0" cy="0" rx="1" ry="1" /></g><g transform="translate(89 21) rotate(334) scale(116 19)"><path d="M0 0h640v640H0z" fill="#0e324b" /></g><g transform="translate(113.516449 251.321647) rotate(292.591463) scale(9.663156 40.292182)"><ellipse fill="#00ef4a" fill-opacity=".501961" cx="0" cy="0" rx="1" ry="1" /></g></g></svg>