<svg xmlns="http://www.w3.org/2000/svg" viewBox="0 0 640 640"><filter id="b"><feGaussianBlur stdDeviation="12" /></filter><path d="M0 0h640v640H0z" fill="#0fe703" /><g filter="url(#b)" transform="scale(2.500000) translate(0.5 0.5)"><g transform="translate(213.163211 255.000000) rotate(338.316452) scale(255.000000 33.793843)"><ellipse fill="#3f3b33" fill-opacity=".501961" cx="0" cy="0" rx="1" ry="1" /></g><ellipse fill="#72003b" fill-opacity=".501961" cx="118" cy="0" rx="242" ry="5" /><g transform="translate(32.649547 255.000000) rotate(93.228783) scale(6.673647 125.945663)"><ellipse fill="#ff3c07" fill-opacity=".501961" cx="0" cy="0" rx="1" ry="1" /></g><ellipse fill="#0f0" fill-opacity=".501961" cx="95" cy="113" rx="111" ry="111" /><ellipse fill="#5f1139" fill-opacity=".501961" cx="206" cy="255" rx="89" ry="9" /><path fill="#a39d00" fill-opacity=".501961" d="M262.432823 35.348756 219.77963 9.368163 160.512256 4.768783 271 3.02187z" /><path fill="#00fb01" fill-opacity=".501961" d="M222.097123 223.241106 159.001348 252.487608 189.707451 205.703987 234.583971 271z" /><path fill="#f95400" fill-opacity=".501961" d="M54 1 46 11 20 3z" /></g></svg>