<svg xmlns="http://www.w3.org/2000/svg" viewBox="0 0 640 640"><filter id="b"><feGaussianBlur stdDeviation="12" /></filter><path d="M0 0h640v640H0z" fill="#423023" /><g filter="url(#b)" transform="scale(2.500000) translate(0.5 0.5)"><g transform="translate(147.707097 43.125145) rotate(105.712029) scale(26.947211 57.835618)"><ellipse fill="#cebfa8" fill-opacity=".501961" cx="0" cy="0" rx="1" ry="1" /></g><g transform="translate(95.253510 137.247777) rotate(283.831984) scale(62.774735 120.047967)"><ellipse fill="#000" fill-opacity=".501961" cx="0" cy="0" rx="1" ry="1" /></g><path fill="#dce5cd" fill-opacity=".501961" d="M23 45 55 20-16 1z" /><path d="M0 0h640v640H0z" fill="#e56212" /><path fill="#bf6e34" fill-opacity=".501961" d="M252 172l-46-29L256 41z" /><g transform="translate(0.000000 196.327235) rotate(337.974445) scale(39.397376 21.521578)"><ellipse fill="#ef5d04" fill-opacity=".501961" cx="0" cy="0" rx="1" ry="1" /></g><g transform="translate(139 199) rotate(271) scale(30 19)"><path d="M0 0h640v640H0z" fill="#ff6300" /></g><g transform="translate(179.044952 58.078630) rotate(162.735377) scale(10.714743 28.491182)"><ellipse fill="#efba9e" fill-opacity=".501961" cx="0" cy="0" rx="1" ry="1" /></g></g></svg>