<svg xmlns="http://www.w3.org/2000/svg" viewBox="0 0 640 640"><filter id="b"><feGaussianBlur stdDeviation="12" /></filter><path d="M0 0h640v640H0z" fill="#3c3228" /><g filter="url(#b)" transform="scale(2.500000) translate(0.5 0.5)"><g transform="translate(97.037520 43.366957) rotate(145.914934) scale(18.403046 39.198714)"><ellipse fill="#37f9fa" fill-opacity=".501961" cx="0" cy="0" rx="1" ry="1" /></g><g transform="translate(183.747093 38.617791) rotate(7.697059) scale(83.718254 22.296247)"><ellipse fill="#9b876e" fill-opacity=".501961" cx="0" cy="0" rx="1" ry="1" /></g><g transform="translate(45.369012 222.787699) rotate(173.893243) scale(48.028601 27.776537)"><ellipse fill="#dc580b" fill-opacity=".501961" cx="0" cy="0" rx="1" ry="1" /></g><g transform="translate(30.543930 93.461005) rotate(227.963722) scale(129.761891 66.812642)"><ellipse fill="#0b0c0e" fill-opacity=".501961" cx="0" cy="0" rx="1" ry="1" /></g><g transform="translate(171.605253 102.374104) rotate(128.988668) scale(28.670404 67.697571)"><ellipse fill="#000005" fill-opacity=".501961" cx="0" cy="0" rx="1" ry="1" /></g><path d="M0 0h640v640H0z" fill="#37ffff" /><path fill="#d95100" fill-opacity=".501961" d="M271 103.541454 232.8276 72.971015 225.428698 105.444933 256.466613 120.192621z" /><path fill="#000002" fill-opacity=".501961" d="M136.035903 48.278103 185.513744 106.287933 100.057791 24.658955 154.600007 42.639309z" /></g></svg>