<svg xmlns="http://www.w3.org/2000/svg" viewBox="0 0 640 640"><filter id="b"><feGaussianBlur stdDeviation="12" /></filter><path d="M0 0h640v640H0z" fill="#210f04" /><g filter="url(#b)" transform="scale(2.500000) translate(0.5 0.5)"><g transform="translate(255.000000 168.271411) rotate(189.125935) scale(61.898148 28.929762)"><ellipse fill="#f75a00" fill-opacity=".501961" cx="0" cy="0" rx="1" ry="1" /></g><g transform="translate(49.741390 242.045097) rotate(193.052817) scale(65.886240 49.554246)"><ellipse fill="#853504" fill-opacity=".501961" cx="0" cy="0" rx="1" ry="1" /></g><g transform="translate(255.000000 155.279782) rotate(90.273971) scale(101.335631 12.542547)"><ellipse fill="#d45102" fill-opacity=".501961" cx="0" cy="0" rx="1" ry="1" /></g><g transform="translate(107.368331 74.281544) rotate(144.186695) scale(147.062167 109.275827)"><ellipse fill="#000104" fill-opacity=".501961" cx="0" cy="0" rx="1" ry="1" /></g><path fill="#830" fill-opacity=".501961" d="M-9 58 67 95 8 91z" /><ellipse fill="#a86236" fill-opacity=".501961" cx="3" cy="3" rx="112" ry="3" /><g transform="translate(179.160146 252.996737) rotate(269.912516) scale(7.868545 165.273231)"><ellipse fill="#5f4a3e" fill-opacity=".501961" cx="0" cy="0" rx="1" ry="1" /></g><path fill="#fc5b00" fill-opacity=".501961" d="M18 257l13-50L6 248z" /></g></svg>