<svg xmlns="http://www.w3.org/2000/svg" viewBox="0 0 1920 1920"><filter id="b"><feGaussianBlur stdDeviation="12" /></filter><path d="M0 0h1920v1920H0z" fill="#7e807f" /><g filter="url(#b)" transform="scale(7.500000) translate(0.5 0.5)"><ellipse fill="#52c5d7" fill-opacity=".501961" cx="236" cy="48" rx="73" ry="73" /><g transform="translate(216.623405 247.750948) rotate(297.831429) scale(27.436941 54.924788)"><ellipse fill="#b1c3f1" fill-opacity=".501961" cx="0" cy="0" rx="1" ry="1" /></g><g transform="translate(112.906105 23.936671) rotate(370.877986) scale(164.021127 18.633675)"><ellipse fill="#a16543" fill-opacity=".501961" cx="0" cy="0" rx="1" ry="1" /></g><g transform="translate(164.194507 191.738558) rotate(179.524001) scale(255.000000 20.070161)"><ellipse fill="#865a30" fill-opacity=".501961" cx="0" cy="0" rx="1" ry="1" /></g><ellipse fill="#00c2d6" fill-opacity=".501961" cx="242" cy="0" rx="73" ry="29" /><g transform="translate(224 103) rotate(188) scale(101 22)"><path d="M0 0h1920v1920H0z" fill="#00ffc8" /></g><ellipse fill="#adcbff" fill-opacity=".501961" cx="251" cy="159" rx="85" ry="12" /><ellipse fill="#8d5e32" fill-opacity=".501961" cx="62" cy="106" rx="124" ry="20" /></g></svg>