<svg xmlns="http://www.w3.org/2000/svg" viewBox="0 0 1920 1920"><filter id="b"><feGaussianBlur stdDeviation="12" /></filter><path d="M0 0h1920v1920H0z" fill="#82767d" /><g filter="url(#b)" transform="scale(7.500000) translate(0.5 0.5)"><ellipse fill="#f9ffff" fill-opacity=".501961" cx="1" cy="59" rx="21" ry="255" /><g transform="translate(136.259209 144.781308) rotate(88.790523) scale(25.498911 32.915094)"><ellipse fill="#000d13" fill-opacity=".501961" cx="0" cy="0" rx="1" ry="1" /></g><ellipse fill="#c5cfed" fill-opacity=".501961" cx="180" cy="190" rx="11" ry="255" /><g transform="translate(137.278170 57.109005) rotate(104.048828) scale(25.432493 31.068413)"><ellipse fill="#00070c" fill-opacity=".501961" cx="0" cy="0" rx="1" ry="1" /></g><ellipse fill="#00060a" fill-opacity=".501961" cx="49" cy="53" rx="35" ry="21" /><g transform="translate(137.541609 229.742752) rotate(114.051423) scale(27.248692 34.176737)"><ellipse fill="#00131b" fill-opacity=".501961" cx="0" cy="0" rx="1" ry="1" /></g><g transform="translate(46.789117 139.298476) rotate(261.236764) scale(20.829092 33.719290)"><ellipse fill="#000a0f" fill-opacity=".501961" cx="0" cy="0" rx="1" ry="1" /></g><g transform="translate(95.687890 77.573761) rotate(361.388534) scale(10.830025 246.997126)"><ellipse fill="#eaf9ff" fill-opacity=".501961" cx="0" cy="0" rx="1" ry="1" /></g></g></svg>