<svg xmlns="http://www.w3.org/2000/svg" viewBox="0 0 1920 1920"><filter id="b"><feGaussianBlur stdDeviation="12" /></filter><path d="M0 0h1920v1920H0z" fill="#9a9ba8" /><g filter="url(#b)" transform="scale(7.500000) translate(0.5 0.5)"><g transform="translate(231.000069 92.208484) rotate(272.135125) scale(95.788055 65.942819)"><ellipse fill="#55505c" fill-opacity=".501961" cx="0" cy="0" rx="1" ry="1" /></g><ellipse fill="#cad1dd" fill-opacity=".501961" cx="153" cy="204" rx="244" ry="24" /><g transform="translate(73.944421 127.215881) rotate(232.726642) scale(22.135451 39.407653)"><ellipse fill="#e3e6f7" fill-opacity=".501961" cx="0" cy="0" rx="1" ry="1" /></g><ellipse fill="#dde1f1" fill-opacity=".501961" cx="67" cy="40" rx="35" ry="29" /><path fill="#000" fill-opacity=".501961" d="M210-16 166 12 89-16z" /><path fill="#3d3b45" fill-opacity=".501961" d="M120 189l61-53 35 27z" /><path d="M0 0h1920v1920H0z" fill="#4a3b79" /><g transform="translate(68.772189 2.667360) rotate(103.510691) scale(6.654505 20.242084)"><ellipse fill="#000" fill-opacity=".501961" cx="0" cy="0" rx="1" ry="1" /></g></g></svg>