<svg xmlns="http://www.w3.org/2000/svg" viewBox="0 0 1920 1920"><filter id="b"><feGaussianBlur stdDeviation="12" /></filter><path d="M0 0h1920v1920H0z" fill="#8c8a81" /><g filter="url(#b)" transform="scale(7.500000) translate(0.5 0.5)"><g transform="translate(169.121458 189.664127) rotate(88.242764) scale(17.208223 176.505857)"><ellipse fill="#5d361b" fill-opacity=".501961" cx="0" cy="0" rx="1" ry="1" /></g><g transform="translate(137.413866 14.113163) rotate(282.617864) scale(27.881105 36.673684)"><ellipse fill="#5b2a06" fill-opacity=".501961" cx="0" cy="0" rx="1" ry="1" /></g><ellipse fill="#c9dce4" fill-opacity=".501961" cx="52" cy="51" rx="177" ry="12" /><ellipse fill="#d6e6ed" fill-opacity=".501961" cx="98" cy="223" rx="137" ry="12" /><g transform="translate(52.914634 23.491718) rotate(280.192771) scale(19.659947 36.641909)"><ellipse fill="#4e2102" fill-opacity=".501961" cx="0" cy="0" rx="1" ry="1" /></g><g transform="translate(53.927031 104.956189) rotate(276.343057) scale(21.378258 38.794995)"><ellipse fill="#562908" fill-opacity=".501961" cx="0" cy="0" rx="1" ry="1" /></g><ellipse fill="#cbdee7" fill-opacity=".501961" cx="28" cy="136" rx="200" ry="12" /><g transform="translate(138 109) rotate(101) scale(29 71)"><path d="M0 0h1920v1920H0z" fill="#451a00" /></g></g></svg>