<svg xmlns="http://www.w3.org/2000/svg" viewBox="0 0 2560 1920"><filter id="b"><feGaussianBlur stdDeviation="12" /></filter><path d="M0 0h2560v1920H0z" fill="#52706b" /><g filter="url(#b)" transform="scale(10.000000) translate(0.5 0.5)"><g transform="translate(228.454421 93.321261) rotate(343.877579) scale(41.335194 35.277339)"><ellipse fill="#0ff" fill-opacity=".501961" cx="0" cy="0" rx="1" ry="1" /></g><g transform="translate(91.746837 139.402736) rotate(259.950362) scale(12.510941 35.457372)"><ellipse fill="#fff" fill-opacity=".501961" cx="0" cy="0" rx="1" ry="1" /></g><ellipse fill="#720d1b" fill-opacity=".501961" cx="93" cy="61" rx="101" ry="23" /><g transform="translate(26.352651 10.934536) rotate(168.424324) scale(38.447328 18.599861)"><ellipse fill="#ffe8f1" fill-opacity=".501961" cx="0" cy="0" rx="1" ry="1" /></g><g transform="translate(228.034396 92.978544) rotate(51.573254) scale(26.796678 44.755422)"><ellipse fill="#0ff" fill-opacity=".501961" cx="0" cy="0" rx="1" ry="1" /></g><ellipse fill="#ccaaa8" fill-opacity=".501961" cx="235" cy="4" rx="43" ry="61" /><ellipse fill="#200" fill-opacity=".501961" cx="119" cy="8" rx="63" ry="13" /><g transform="translate(168.617513 159.021236) rotate(258.296973) scale(11.400468 29.262979)"><ellipse fill="#0ff" fill-opacity=".501961" cx="0" cy="0" rx="1" ry="1" /></g></g></svg>