<svg xmlns="http://www.w3.org/2000/svg" viewBox="0 0 2560 1920"><filter id="b"><feGaussianBlur stdDeviation="12" /></filter><path d="M0 0h2560v1920H0z" fill="#47746c" /><g filter="url(#b)" transform="scale(10.000000) translate(0.5 0.5)"><ellipse fill="#0ff" fill-opacity=".501961" cx="94" cy="26" rx="35" ry="35" /><g transform="translate(255.000000 90.375730) rotate(76.481254) scale(28.521193 34.369050)"><ellipse fill="#0ff" fill-opacity=".501961" cx="0" cy="0" rx="1" ry="1" /></g><g transform="translate(32.139908 41.405651) rotate(65.360494) scale(54.452556 24.705514)"><ellipse fill="#080000" fill-opacity=".501961" cx="0" cy="0" rx="1" ry="1" /></g><g transform="translate(0.000000 88.666580) rotate(196.005109) scale(35.451498 26.466035)"><ellipse fill="#0ff" fill-opacity=".501961" cx="0" cy="0" rx="1" ry="1" /></g><g transform="translate(158.105471 34.622347) rotate(101.708183) scale(93.129435 25.718956)"><ellipse fill="#ddaa9d" fill-opacity=".501961" cx="0" cy="0" rx="1" ry="1" /></g><ellipse fill="#39160f" fill-opacity=".501961" cx="40" cy="157" rx="56" ry="49" /><g transform="translate(93.575623 23.992073) rotate(-65.142086) scale(42.301083 27.685186)"><ellipse fill="#0ff" fill-opacity=".501961" cx="0" cy="0" rx="1" ry="1" /></g><ellipse fill="#1f0400" fill-opacity=".501961" cx="142" cy="191" rx="84" ry="27" /></g></svg>