<svg xmlns="http://www.w3.org/2000/svg" viewBox="0 0 1280 369"><filter id="b"><feGaussianBlur stdDeviation="12" /></filter><path d="M0 0h1280v369H0z" fill="#676962" /><g filter="url(#b)" transform="scale(5.000000) translate(0.5 0.5)"><g transform="translate(117.195467 39.180466) rotate(249.754592) scale(77.620024 63.394699)"><ellipse fill="#b7babe" fill-opacity=".501961" cx="0" cy="0" rx="1" ry="1" /></g><g transform="translate(12.995001 32.226580) rotate(24.293726) scale(26.243446 68.902673)"><ellipse fill="#000" fill-opacity=".501961" cx="0" cy="0" rx="1" ry="1" /></g><g transform="translate(214.921619 0.000000) rotate(-96.890323) scale(35.605119 41.582977)"><ellipse fill="#000" fill-opacity=".501961" cx="0" cy="0" rx="1" ry="1" /></g><g transform="translate(19.041321 8.378703) rotate(210.790464) scale(25.599339 76.022962)"><ellipse fill="#000" fill-opacity=".501961" cx="0" cy="0" rx="1" ry="1" /></g><ellipse fill="#d6d5d3" fill-opacity=".501961" cx="94" cy="27" rx="32" ry="16" /><path d="M0 0h1280v369H0z" fill="#fafbff" /><ellipse fill="#001427" fill-opacity=".501961" cx="142" cy="16" rx="5" ry="32" /><g transform="translate(218.709546 10.844132) rotate(352.327676) scale(41.732749 21.653113)"><ellipse fill="#001000" fill-opacity=".501961" cx="0" cy="0" rx="1" ry="1" /></g></g></svg>