<svg xmlns="http://www.w3.org/2000/svg" viewBox="0 0 1280 369"><filter id="b"><feGaussianBlur stdDeviation="12" /></filter><path d="M0 0h1280v369H0z" fill="#676962" /><g filter="url(#b)" transform="scale(5.000000) translate(0.5 0.5)"><ellipse fill="#b8bbc0" fill-opacity=".501961" cx="116" cy="30" rx="64" ry="54" /><g transform="translate(10.452793 31.156068) rotate(113.152282) scale(110.893181 27.476419)"><ellipse fill="#000" fill-opacity=".501961" cx="0" cy="0" rx="1" ry="1" /></g><ellipse fill="#000" fill-opacity=".501961" cx="214" cy="0" rx="44" ry="35" /><g transform="translate(15.806449 19.625970) rotate(301.601574) scale(61.901828 22.946845)"><ellipse fill="#000" fill-opacity=".501961" cx="0" cy="0" rx="1" ry="1" /></g><g transform="translate(180.244434 36.718779) rotate(102.060894) scale(7.677213 34.414465)"><ellipse fill="#cfcfd3" fill-opacity=".501961" cx="0" cy="0" rx="1" ry="1" /></g><g transform="translate(92.153171 28.919922) rotate(189.084297) scale(29.979507 16.477775)"><ellipse fill="#d4d4d1" fill-opacity=".501961" cx="0" cy="0" rx="1" ry="1" /></g><g transform="translate(224.152474 9.805324) rotate(66.335142) scale(18.298005 43.574066)"><ellipse fill="#000c00" fill-opacity=".501961" cx="0" cy="0" rx="1" ry="1" /></g><path d="M0 0h1280v369H0z" fill="#001223" /></g></svg>