<svg xmlns="http://www.w3.org/2000/svg" viewBox="0 0 1536 1024"><filter id="b"><feGaussianBlur stdDeviation="12" /></filter><path d="M0 0h1536v1024H0z" fill="#a2918d" /><g filter="url(#b)" transform="scale(6.000000) translate(0.5 0.5)"><ellipse fill="#fff" fill-opacity=".501961" cx="219" cy="45" rx="47" ry="52" /><g transform="translate(11.748468 79.360793) rotate(172.109977) scale(32.488936 65.018512)"><ellipse fill="#fff" fill-opacity=".501961" cx="0" cy="0" rx="1" ry="1" /></g><g transform="translate(116.885875 131.869153) rotate(268.604962) scale(213.935249 64.153710)"><ellipse fill="#654a26" fill-opacity=".501961" cx="0" cy="0" rx="1" ry="1" /></g><g transform="translate(16.879443 75.258651) rotate(314.200755) scale(43.491791 29.597014)"><ellipse fill="#fffdff" fill-opacity=".501961" cx="0" cy="0" rx="1" ry="1" /></g><ellipse fill="#a7aed3" fill-opacity=".501961" cx="126" cy="120" rx="248" ry="12" /><ellipse fill="#eaddff" fill-opacity=".501961" cx="205" cy="61" rx="35" ry="35" /><g transform="translate(84.088154 29.797633) rotate(82.742231) scale(31.502907 43.138939)"><ellipse fill="#bc7c24" fill-opacity=".501961" cx="0" cy="0" rx="1" ry="1" /></g><ellipse fill="#435263" fill-opacity=".501961" cx="153" cy="102" rx="89" ry="11" /></g></svg>