<svg xmlns="http://www.w3.org/2000/svg" viewBox="0 0 640 640"><filter id="b"><feGaussianBlur stdDeviation="12" /></filter><path d="M0 0h640v640H0z" fill="#638298" /><g filter="url(#b)" transform="scale(2.500000) translate(0.5 0.5)"><g transform="translate(109.469859 4.974393) rotate(406.886934) scale(79.263654 94.472806)"><ellipse fill="#2e92f9" fill-opacity=".501961" cx="0" cy="0" rx="1" ry="1" /></g><g transform="translate(122.526838 232.356002) rotate(185.340774) scale(255.000000 66.378325)"><ellipse fill="#958b67" fill-opacity=".501961" cx="0" cy="0" rx="1" ry="1" /></g><ellipse fill="#04558e" fill-opacity=".501961" cx="238" cy="28" rx="24" ry="61" /><ellipse fill="#a385e0" fill-opacity=".501961" cx="68" cy="101" rx="48" ry="26" /><g transform="translate(255.000000 145.048947) rotate(-13.595623) scale(36.909504 64.616901)"><ellipse fill="#766f44" fill-opacity=".501961" cx="0" cy="0" rx="1" ry="1" /></g><g transform="translate(144.724550 163.429412) rotate(2.645472) scale(38.644266 21.253957)"><ellipse fill="#3c4274" fill-opacity=".501961" cx="0" cy="0" rx="1" ry="1" /></g><ellipse fill="#029ade" fill-opacity=".501961" cx="137" cy="110" rx="13" ry="23" /><ellipse fill="#264d7d" fill-opacity=".501961" cx="18" cy="73" rx="7" ry="154" /></g></svg>