<svg xmlns="http://www.w3.org/2000/svg" viewBox="0 0 640 640"><filter id="b"><feGaussianBlur stdDeviation="12" /></filter><path d="M0 0h640v640H0z" fill="#738aa6" /><g filter="url(#b)" transform="scale(2.500000) translate(0.5 0.5)"><g transform="translate(111.659726 33.232910) rotate(167.703905) scale(175.636780 61.604178)"><ellipse fill="#258bff" fill-opacity=".501961" cx="0" cy="0" rx="1" ry="1" /></g><ellipse fill="#9f835b" fill-opacity=".501961" cx="246" cy="185" rx="132" ry="132" /><g transform="translate(100.937379 88.098814) rotate(165.214163) scale(108.279115 45.295911)"><ellipse fill="#7fa3db" fill-opacity=".501961" cx="0" cy="0" rx="1" ry="1" /></g><ellipse fill="#9a9289" fill-opacity=".501961" cx="42" cy="199" rx="112" ry="64" /><g transform="translate(249.738487 21.895247) rotate(13.701230) scale(215.723920 34.167522)"><ellipse fill="#0f6cd6" fill-opacity=".501961" cx="0" cy="0" rx="1" ry="1" /></g><ellipse fill="#ff0100" fill-opacity=".501961" cx="206" cy="90" rx="9" ry="9" /><g transform="translate(81.478442 186.919735) rotate(357.642075) scale(70.658566 20.875561)"><ellipse fill="#a7aebf" fill-opacity=".501961" cx="0" cy="0" rx="1" ry="1" /></g><path d="M0 0h640v640H0z" fill="#727549" /></g></svg>