<svg xmlns="http://www.w3.org/2000/svg" viewBox="0 0 1536 1024"><filter id="b"><feGaussianBlur stdDeviation="12" /></filter><path d="M0 0h1536v1024H0z" fill="#a2918d" /><g filter="url(#b)" transform="scale(6.000000) translate(0.5 0.5)"><g transform="translate(221.785817 47.197634) rotate(43.263749) scale(44.502694 52.121690)"><ellipse fill="#fff" fill-opacity=".501961" cx="0" cy="0" rx="1" ry="1" /></g><g transform="translate(117.632795 107.217092) rotate(175.661938) scale(62.807844 183.786755)"><ellipse fill="#654a25" fill-opacity=".501961" cx="0" cy="0" rx="1" ry="1" /></g><g transform="translate(0.000000 85.153880) rotate(273.379094) scale(66.578807 46.945838)"><ellipse fill="#fff" fill-opacity=".501961" cx="0" cy="0" rx="1" ry="1" /></g><ellipse fill="#a8aed3" fill-opacity=".501961" cx="78" cy="120" rx="255" ry="12" /><g transform="translate(21.423960 68.668569) rotate(325.106082) scale(34.954927 28.990129)"><ellipse fill="#fffcff" fill-opacity=".501961" cx="0" cy="0" rx="1" ry="1" /></g><g transform="translate(217.539165 56.150123) rotate(159.549413) scale(46.787986 41.181390)"><ellipse fill="#e6d9ff" fill-opacity=".501961" cx="0" cy="0" rx="1" ry="1" /></g><g transform="translate(84.000651 29.870968) rotate(247.706423) scale(33.716036 40.762189)"><ellipse fill="#be7c22" fill-opacity=".501961" cx="0" cy="0" rx="1" ry="1" /></g><path fill="#304154" fill-opacity=".501961" d="M248.519591 104.437675 212.139271 102.874367 147.29709 68.512605 148.70162 118.561748z" /></g></svg>