<svg xmlns="http://www.w3.org/2000/svg" viewBox="0 0 640 640"><filter id="b"><feGaussianBlur stdDeviation="12" /></filter><path d="M0 0h640v640H0z" fill="#5c759c" /><g filter="url(#b)" transform="scale(2.500000) translate(0.5 0.5)"><g transform="translate(132.692880 0.000000) rotate(359.163557) scale(194.044632 27.611595)"><ellipse fill="#d21959" fill-opacity=".501961" cx="0" cy="0" rx="1" ry="1" /></g><ellipse fill="#0027f7" fill-opacity=".501961" cx="145" cy="36" rx="255" ry="11" /><g transform="translate(87.053408 208.599318) rotate(-2.675712) scale(57.446729 29.989687)"><ellipse fill="#76bd55" fill-opacity=".501961" cx="0" cy="0" rx="1" ry="1" /></g><g transform="translate(92 246) rotate(86) scale(19 137)"><path d="M0 0h640v640H0z" fill="#5a5bff" /></g><ellipse fill="#c4775c" fill-opacity=".501961" cx="63" cy="58" rx="86" ry="7" /><g transform="translate(9 51) rotate(277) scale(27 26)"><path d="M0 0h640v640H0z" fill="#68ff79" /></g><g transform="translate(172.703856 88.831160) rotate(86.195015) scale(10.361943 24.971100)"><ellipse fill="#3ff4ba" fill-opacity=".501961" cx="0" cy="0" rx="1" ry="1" /></g><path d="M0 0h640v640H0z" fill="#7a2899" /></g></svg>