<svg xmlns="http://www.w3.org/2000/svg" viewBox="0 0 1928 3212"><filter id="b"><feGaussianBlur stdDeviation="12" /></filter><path d="M0 0h1928v3212H0z" fill="#4b4334" /><g filter="url(#b)" transform="scale(12.546875) translate(0.5 0.5)"><g transform="translate(34.067820 68.409286) rotate(89.694273) scale(111.293649 18.092644)"><ellipse fill="#b4c1c3" fill-opacity=".501961" cx="0" cy="0" rx="1" ry="1" /></g><ellipse fill="#020000" fill-opacity=".501961" cx="132" cy="136" rx="31" ry="255" /><g transform="translate(64.769926 23.705356) rotate(203.857176) scale(16.652019 30.088262)"><ellipse fill="#f60" fill-opacity=".501961" cx="0" cy="0" rx="1" ry="1" /></g><path fill="#99af91" fill-opacity=".501961" d="M8 202-16 271l127-49z" /><path fill="#0ff" fill-opacity=".501961" d="M106.694946 150.167484 101.767863 146.231922 102.144289 113.940845 65.645027 136.920502z" /><g transform="translate(69.492357 192.931734) rotate(193.930542) scale(17.280350 40.909885)"><ellipse fill="#0e0000" fill-opacity=".501961" cx="0" cy="0" rx="1" ry="1" /></g><path d="M0 0h1928v3212H0z" fill="#0ff" /><ellipse fill="#ff8a00" fill-opacity=".501961" cx="67" cy="93" rx="24" ry="9" /></g></svg>