<svg xmlns="http://www.w3.org/2000/svg" viewBox="0 0 640 640"><filter id="b"><feGaussianBlur stdDeviation="12" /></filter><path d="M0 0h640v640H0z" fill="#ac3828" /><g filter="url(#b)" transform="scale(2.500000) translate(0.5 0.5)"><g transform="translate(125.229143 10.465410) rotate(181.746306) scale(136.349084 46.259554)"><ellipse fill="#ffbd9d" fill-opacity=".501961" cx="0" cy="0" rx="1" ry="1" /></g><g transform="translate(196.746629 197.016701) rotate(346.374470) scale(152.332190 72.617267)"><ellipse fill="#5f0000" fill-opacity=".501961" cx="0" cy="0" rx="1" ry="1" /></g><path d="M0 0h640v640H0z" fill="#d05423" /><ellipse fill="#ff866a" fill-opacity=".501961" cx="171" cy="7" rx="66" ry="66" /><g transform="translate(223.266237 171.829540) rotate(60.672493) scale(81.983779 25.828275)"><ellipse fill="#580000" fill-opacity=".501961" cx="0" cy="0" rx="1" ry="1" /></g><ellipse fill="#6d0000" fill-opacity=".501961" cx="55" cy="214" rx="118" ry="17" /><g transform="translate(0.000000 20.394223) rotate(45.721245) scale(24.738594 63.957287)"><ellipse fill="#ff9377" fill-opacity=".501961" cx="0" cy="0" rx="1" ry="1" /></g><g transform="translate(84.176547 19.962101) rotate(237.656933) scale(59.992165 33.706114)"><ellipse fill="#ff7e64" fill-opacity=".501961" cx="0" cy="0" rx="1" ry="1" /></g></g></svg>